<?xml version="1.0" standalone="no"?>
<!DOCTYPE svg PUBLIC "-//W3C//DTD SVG 1.1//EN" "http://www.w3.org/Graphics/SVG/1.1/DTD/svg11.dtd" >
<svg>
<metadata>
Created by FontForge 20120731 at Mon Feb 29 21:35:00 2016
 By ,,,
HTF Knockout Copr. 1994-7 The Hoefler Type Foundry, Inc. http://www.typography.com
</metadata>
<defs>
<font id="Knockout-HTF29-JuniorLiteweight" horiz-adv-x="462" >
  <font-face 
    font-family="Knockout HTF29-JuniorLiteweight"
    font-weight="500"
    font-stretch="normal"
    units-per-em="1000"
    panose-1="0 0 0 0 0 0 0 0 0 0"
    ascent="800"
    descent="-200"
    x-height="468"
    cap-height="666"
    bbox="-221 -231 868 839"
    underline-thickness="45"
    underline-position="-83"
    unicode-range="U+0020-FB02"
  />
<missing-glyph horiz-adv-x="500" 
 />
    <glyph glyph-name=".notdef" horiz-adv-x="500" 
 />
    <glyph glyph-name=".null" horiz-adv-x="0" 
 />
    <glyph glyph-name="nonmarkingreturn" horiz-adv-x="333" 
 />
    <glyph glyph-name="space" unicode=" " horiz-adv-x="164" 
 />
    <glyph glyph-name="exclam" unicode="!" horiz-adv-x="191" 
d="M142 376l-33 -190h-26l-33 190v290h92v-290zM137 0h-83v111h83v-111z" />
    <glyph glyph-name="quotedbl" unicode="&#x22;" horiz-adv-x="258" 
d="M264 666l-74 -201h-53l49 201h78zM138 666l-58 -201h-53l34 201h77z" />
    <glyph glyph-name="numbersign" unicode="#" horiz-adv-x="559" 
d="M551 431h-129l-34 -196h135v-56h-145l-30 -179h-62l30 179h-125l-31 -179h-62l31 179h-121v56h131l33 196h-136v56h146l30 179h62l-29 -179h125l30 179h62l-30 -179h119v-56zM360 431h-126l-33 -196h125z" />
    <glyph glyph-name="dollar" unicode="$" horiz-adv-x="429" 
d="M177 676v87h80v-85q63 -10 100 -55.5t37 -110.5v-44h-87v33q0 44 -21.5 72t-64.5 28q-37 0 -57.5 -22t-20.5 -59q0 -26 14 -50.5t29.5 -39t50.5 -43.5q32 -23 45.5 -34t39.5 -35.5t37.5 -44.5t22 -50.5t10.5 -64.5q0 -66 -37 -111.5t-98 -57.5v-86h-80v86q-63 11 -100 56
t-37 110v46h89v-34q0 -103 88 -103q40 0 63.5 26t23.5 65q0 30 -17 58.5t-37 46t-57 45.5q-65 47 -102.5 93t-37.5 109q0 65 32.5 110.5t91.5 58.5z" />
    <glyph glyph-name="percent" unicode="%" horiz-adv-x="568" 
d="M231 439q0 -47 -27.5 -75t-71.5 -28q-43 0 -70.5 28t-27.5 75v139q0 46 27.5 74t70.5 28q44 0 71.5 -28t27.5 -74v-139zM518 657l-422 -679l-39 30l422 679zM542 88q0 -48 -27.5 -76t-71.5 -28q-43 0 -71 28t-28 76v138q0 47 28 75t71 28q44 0 71.5 -28t27.5 -75v-138z
M168 424v169q0 14 -10 24t-26 10t-25.5 -9.5t-9.5 -24.5v-169q0 -15 9.5 -24t25.5 -9t26 9t10 24zM479 72v170q0 14 -10 23.5t-26 9.5t-26 -9.5t-10 -23.5v-170q0 -14 10 -23.5t26 -9.5t26 9.5t10 23.5z" />
    <glyph glyph-name="ampersand" unicode="&#x26;" horiz-adv-x="557" 
d="M549 94q0 -52 -27.5 -80.5t-75.5 -28.5q-52 0 -109 55q-61 -55 -141 -55q-73 0 -118 47.5t-45 118.5q0 120 126 210q-29 79 -29 147q0 75 39.5 124t107.5 49q63 0 95 -40.5t32 -106.5q0 -112 -146 -201q39 -115 82 -176q28 42 46 95.5t18 91.5h75q-1 -56 -25.5 -125
t-63.5 -123q31 -33 63 -33q29 0 29 34v64h67v-67zM324 533q0 66 -47 66q-29 0 -45.5 -23.5t-16.5 -66.5q0 -42 18 -109q91 61 91 133zM286 94q-52 69 -99 191q-64 -51 -64 -121q0 -48 24.5 -73t70.5 -25q40 0 68 28z" />
    <glyph glyph-name="quotesingle" unicode="'" horiz-adv-x="178" 
d="M173 666l-76 -201h-55l42 201h89z" />
    <glyph glyph-name="parenleft" unicode="(" horiz-adv-x="322" 
d="M324 -139l-23 -27q-103 81 -158 201t-55 266q0 145 55 266t158 202l23 -27q-148 -170 -148 -441q0 -272 148 -440z" />
    <glyph glyph-name="parenright" unicode=")" horiz-adv-x="322" 
d="M234 301q0 -145 -55.5 -265.5t-157.5 -201.5l-24 27q149 169 149 440q0 270 -149 441l24 27q102 -82 157.5 -202.5t55.5 -265.5z" />
    <glyph glyph-name="asterisk" unicode="*" horiz-adv-x="313" 
d="M280 482l-18 -31q-5 -8 -18 -3q-38 24 -68 53q11 -45 11 -86q0 -15 -11 -15h-37q-11 0 -11 15q0 42 11 85q-40 -36 -69 -52q-12 -9 -18 2l-18 32q-6 10 7 16q30 19 79 33q-37 11 -80 34q-13 7 -7 17l18 32q6 9 18 2q36 -22 69 -52q-12 50 -12 86q0 14 12 14h37
q11 0 11 -14q0 -38 -11 -86q31 30 68 53q12 6 19 -3l18 -31q5 -9 -7 -17q-34 -20 -79 -33q47 -14 79 -33q12 -8 7 -18z" />
    <glyph glyph-name="plus" unicode="+" horiz-adv-x="351" 
d="M311 302h-99v-109h-72v109h-100v72h100v108h72v-108h99v-72z" />
    <glyph glyph-name="comma" unicode="," horiz-adv-x="189" 
d="M136 13q0 -50 -25 -79t-75 -29v29q26 0 40.5 17.5t14.5 48.5h-37v113h82v-100z" />
    <glyph glyph-name="hyphen" unicode="-" horiz-adv-x="272" 
d="M241 269h-210v76h210v-76z" />
    <glyph glyph-name="period" unicode="." horiz-adv-x="189" 
d="M136 0h-82v113h82v-113z" />
    <glyph glyph-name="slash" unicode="/" horiz-adv-x="264" 
d="M265 729l-198 -793h-65l199 793h64z" />
    <glyph glyph-name="zero" unicode="0" horiz-adv-x="445" 
d="M400 158q0 -78 -48 -125.5t-129 -47.5t-129 47.5t-48 125.5v350q0 78 48 125.5t129 47.5t129 -47.5t48 -125.5v-350zM311 149v368q0 35 -24 58.5t-64 23.5t-64.5 -23.5t-24.5 -58.5v-368q0 -35 24.5 -58.5t64.5 -23.5t64 23.5t24 58.5z" />
    <glyph glyph-name="one" unicode="1" horiz-adv-x="227" 
d="M158 0h-90v623q43 0 43 43h47v-666z" />
    <glyph glyph-name="two" unicode="2" horiz-adv-x="392" 
d="M369 512q0 -120 -154 -246q-93 -94 -93 -180h241v-86h-335v36q0 78 28 141t112 148q64 60 90.5 101.5t26.5 89.5q0 87 -82 87q-83 0 -83 -90v-61h-80v62q0 71 42 119t120 48q85 0 126 -47.5t41 -121.5z" />
    <glyph glyph-name="three" unicode="3" horiz-adv-x="398" 
d="M365 145q0 -73 -44 -116.5t-123 -43.5t-120.5 44.5t-41.5 113.5v60h80v-49q0 -91 80 -91q83 0 83 86v93q0 61 -72 61h-52v72h52q72 0 72 61v80q0 87 -83 87q-80 0 -80 -91v-49h-80v60q0 69 41.5 113.5t120.5 44.5t123 -43.5t44 -116.5v-68q0 -43 -21 -73t-58 -37
q79 -21 79 -106v-92z" />
    <glyph glyph-name="four" unicode="4" horiz-adv-x="387" 
d="M376 151h-59v-151h-80v151h-227v66l234 449h73v-436h59v-79zM237 230v262l-134 -262h134z" />
    <glyph glyph-name="five" unicode="5" horiz-adv-x="404" 
d="M372 666q-3 -46 -19 -64.5t-58 -18.5h-157l-13 -193q36 56 123 56q57 0 90.5 -35t33.5 -93v-169q0 -76 -45 -120t-126 -44q-77 0 -119.5 46t-42.5 112v51h80v-40q0 -42 20.5 -66.5t61.5 -24.5q83 0 83 91v150q0 34 -17.5 52.5t-48.5 18.5q-70 0 -99 -75l-74 15l18 351
h309z" />
    <glyph glyph-name="six" unicode="6" horiz-adv-x="424" 
d="M391 156q0 -77 -46 -123.5t-127 -46.5q-80 0 -126.5 46.5t-46.5 123.5v347q0 81 47.5 129.5t128.5 48.5q77 0 120 -46t43 -112v-43h-80v32q0 91 -88 91q-84 0 -84 -98v-157q47 59 127 59q61 0 96.5 -38t35.5 -97v-116zM304 144v114q0 80 -83 80q-41 0 -65 -23t-24 -57
v-107q0 -39 23.5 -63.5t62.5 -24.5t62.5 22.5t23.5 58.5z" />
    <glyph glyph-name="seven" unicode="7" horiz-adv-x="373" 
d="M368 607q-98 -188 -143 -322t-46 -285h-96q3 131 56 283t135 299h-250v84h344v-59z" />
    <glyph glyph-name="eight" unicode="8" horiz-adv-x="425" 
d="M384 145q0 -73 -45.5 -116.5t-125.5 -43.5q-81 0 -126.5 43.5t-45.5 116.5v80q0 39 20 69t50 44q-30 14 -48.5 43.5t-18.5 69.5v70q0 73 44.5 116.5t124.5 43.5t124 -43.5t44 -116.5v-70q0 -40 -18.5 -69.5t-47.5 -43.5q30 -15 49.5 -44.5t19.5 -68.5v-80zM298 447v69
q0 41 -23.5 64t-61.5 23t-62 -23t-24 -64v-69q0 -33 21.5 -57.5t64.5 -24.5q42 0 63.5 24.5t21.5 57.5zM300 150v75q0 32 -22.5 56.5t-64.5 24.5q-43 0 -65.5 -24.5t-22.5 -56.5v-75q0 -40 24.5 -63.5t63.5 -23.5q38 0 62.5 23.5t24.5 63.5z" />
    <glyph glyph-name="nine" unicode="9" horiz-adv-x="434" 
d="M389 158q0 -80 -46.5 -126.5t-127.5 -46.5q-79 0 -124 43t-45 110v43h79v-31q0 -43 25 -65t68 -22q83 0 83 91v154q-44 -59 -119 -59q-64 0 -101 40t-37 100v121q0 77 45.5 124t125.5 47q84 0 129 -47t45 -127v-349zM301 401v114q0 38 -22 63t-64 25q-41 0 -63.5 -22.5
t-22.5 -58.5v-121q0 -36 21.5 -58t64.5 -22q40 0 63 23t23 57z" />
    <glyph glyph-name="colon" unicode=":" horiz-adv-x="189" 
d="M136 325h-82v113h82v-113zM136 0h-82v113h82v-113z" />
    <glyph glyph-name="semicolon" unicode=";" horiz-adv-x="189" 
d="M136 325h-82v113h82v-113zM136 13q0 -50 -25 -79t-75 -29v29q26 0 40.5 17.5t14.5 48.5h-37v113h82v-100z" />
    <glyph glyph-name="less" unicode="&#x3c;" horiz-adv-x="464" 
d="M390 100l-339 220v27l339 219v-91l-220 -142l220 -142v-91z" />
    <glyph glyph-name="equal" unicode="=" horiz-adv-x="343" 
d="M308 378h-273v79h273v-79zM308 218h-273v80h273v-80z" />
    <glyph glyph-name="greater" unicode="&#x3e;" horiz-adv-x="464" 
d="M413 320l-338 -220v91l220 142l-220 143v90l338 -220v-26z" />
    <glyph glyph-name="question" unicode="?" horiz-adv-x="368" 
d="M348 515q0 -103 -100 -200q-31 -29 -41.5 -53.5t-10.5 -61.5h-68q0 29 3.5 49t19 48t25 41t44.5 60q39 54 39 115q0 48 -18.5 69t-57.5 21q-78 0 -78 -95v-62h-81v71q0 73 39 118t117 45q87 0 127.5 -46.5t40.5 -118.5zM201 0h-83v111h83v-111z" />
    <glyph glyph-name="at" unicode="@" horiz-adv-x="637" 
d="M611 355q0 -85 -45.5 -147t-124.5 -62q-34 0 -57.5 21.5t-22.5 55.5q-40 -68 -98 -68q-39 0 -63 28.5t-24 76.5q0 70 47.5 133.5t110.5 63.5q57 0 65 -53l16 48h66l-59 -188q-11 -32 -2 -52.5t37 -20.5q45 0 74.5 45t29.5 120q0 102 -65 165.5t-167 63.5
q-109 0 -179.5 -80.5t-70.5 -198.5q0 -122 70 -198.5t180 -76.5q103 0 169 64l28 -35q-82 -75 -197 -75q-129 0 -214 90t-85 231q0 137 86 230.5t213 93.5q70 0 126.5 -26t89 -67.5t49.5 -88t17 -93.5zM384 361q0 54 -40 54q-42 0 -71 -48.5t-29 -102.5q0 -28 13 -43.5
t33 -15.5q45 0 71 79z" />
    <glyph glyph-name="A" unicode="A" horiz-adv-x="417" 
d="M409 0h-96l-35 163h-144l-35 -163h-92l151 666h100zM261 244l-55 273l-55 -273h110z" />
    <glyph glyph-name="B" unicode="B" horiz-adv-x="446" 
d="M408 149q0 -149 -156 -149h-198v666h193q154 0 154 -149v-54q0 -102 -85 -120q92 -18 92 -123v-71zM308 449v70q0 65 -60 65h-99v-210h88q71 0 71 75zM313 146v78q0 75 -71 75h-93v-217h103q61 0 61 64z" />
    <glyph glyph-name="C" unicode="C" horiz-adv-x="444" 
d="M412 161q0 -78 -45.5 -127t-135.5 -49t-138 53t-48 132v326q0 79 48 131.5t138 52.5t135.5 -48.5t45.5 -126.5v-72h-85v70q0 43 -24 68t-69 25q-46 0 -70 -24.5t-24 -64.5v-348q0 -40 24 -64.5t70 -24.5t69.5 24.5t23.5 68.5v70h85v-72z" />
    <glyph glyph-name="D" unicode="D" horiz-adv-x="465" 
d="M420 180q0 -82 -44.5 -131t-133.5 -49h-188v666h188q89 0 133.5 -49t44.5 -131v-306zM326 184v297q0 98 -90 98h-87v-492h87q90 0 90 97z" />
    <glyph glyph-name="E" unicode="E" horiz-adv-x="393" 
d="M364 0h-310v666h310v-86h-216v-190h156v-82h-156v-222h216v-86z" />
    <glyph glyph-name="F" unicode="F" horiz-adv-x="377" 
d="M361 581h-212v-205h163v-83h-163v-293h-95v667h307v-86z" />
    <glyph glyph-name="G" unicode="G" horiz-adv-x="453" 
d="M413 0h-47l-18 51q-35 -66 -130 -66q-84 0 -128.5 51.5t-44.5 131.5v330q0 78 48 130t138 52q91 0 134.5 -49t43.5 -133v-39h-90v50q0 37 -22 62t-66 25t-67.5 -26t-23.5 -63v-348q0 -38 23.5 -64t67.5 -26q45 0 68.5 26.5t23.5 63.5v103h-89v80h179v-342z" />
    <glyph glyph-name="H" unicode="H" horiz-adv-x="486" 
d="M432 0h-94v292h-189v-292h-95v666h95v-289h189v289h94v-666z" />
    <glyph glyph-name="I" unicode="I" horiz-adv-x="202" 
d="M149 0h-95v666h95v-666z" />
    <glyph glyph-name="J" unicode="J" horiz-adv-x="423" 
d="M371 170q0 -86 -41.5 -135.5t-127.5 -49.5q-84 0 -128.5 45.5t-44.5 128.5v106h89v-103q0 -92 81 -92q77 0 77 92v504h95v-496z" />
    <glyph glyph-name="K" unicode="K" horiz-adv-x="443" 
d="M430 0h-103l-126 297l-53 -91v-206h-94v666h94v-324l181 324h101l-168 -286z" />
    <glyph glyph-name="L" unicode="L" horiz-adv-x="373" 
d="M359 0h-305v666h94v-580h211v-86z" />
    <glyph glyph-name="M" unicode="M" horiz-adv-x="606" 
d="M552 0h-86v519l-27 -127l-91 -392h-93l-89 392l-28 127v-519h-84v666h132l91 -416l27 -127l27 128l89 415h132v-666z" />
    <glyph glyph-name="N" unicode="N" horiz-adv-x="484" 
d="M431 0h-67l-165 324l-56 117v-441h-90v666h77l158 -330l53 -117v447h90v-666z" />
    <glyph glyph-name="O" unicode="O" 
d="M417 176q0 -86 -47.5 -138.5t-138.5 -52.5q-90 0 -138 53t-48 138v314q0 85 48 137.5t138 52.5q91 0 138.5 -52.5t47.5 -137.5v-314zM323 168v330q0 44 -23.5 71t-68.5 27t-68 -26.5t-23 -71.5v-330q0 -45 23 -71.5t68 -26.5t68.5 27t23.5 71z" />
    <glyph glyph-name="P" unicode="P" horiz-adv-x="430" 
d="M403 420q0 -73 -38.5 -113t-117.5 -40h-99v-267h-94v666h193q156 0 156 -154v-92zM308 417v98q0 69 -60 69h-100v-236h100q60 0 60 69z" />
    <glyph glyph-name="Q" unicode="Q" 
d="M454 0q-20 -15 -53 -15q-38 0 -68 25q-45 -25 -102 -25q-90 0 -138 52.5t-48 130.5v330q0 78 48 130t138 52q89 0 137 -52t48 -130v-344q0 -47 -23 -82q20 -17 61 -17v-55zM322 160v347q0 37 -23.5 63t-67.5 26t-67.5 -26t-23.5 -63v-348q0 -37 23.5 -63t67.5 -26
q29 0 52 13l-27 25z" />
    <glyph glyph-name="R" unicode="R" horiz-adv-x="451" 
d="M434 -7h-21q-57 0 -79 19.5t-22 70.5v130q0 77 -69 77h-94v-290h-95v666h193q156 0 156 -149v-73q0 -51 -19.5 -79.5t-66.5 -37.5q44 -7 66.5 -40t22.5 -76v-121q0 -26 28 -26v-71zM308 438v81q0 65 -61 65h-98v-222h88q71 0 71 76z" />
    <glyph glyph-name="S" unicode="S" horiz-adv-x="427" 
d="M396 166q0 -81 -51.5 -131t-131.5 -50q-82 0 -132.5 47.5t-50.5 121.5v46h94v-31q0 -103 90 -103q42 0 65 23.5t23 62.5q0 45 -23.5 77.5t-86.5 71.5q-69 44 -111.5 94t-42.5 115q0 74 47 122t129 48q80 0 128.5 -47.5t48.5 -121.5v-43h-90v31q0 45 -22.5 72.5
t-67.5 27.5q-38 0 -58.5 -20.5t-20.5 -55.5q0 -44 25 -74.5t98 -77.5q75 -49 108 -95.5t33 -109.5z" />
    <glyph glyph-name="T" unicode="T" horiz-adv-x="394" 
d="M381 579h-136v-579h-95v579h-137v87h368v-87z" />
    <glyph glyph-name="U" unicode="U" horiz-adv-x="475" 
d="M423 159q0 -81 -51.5 -127.5t-134.5 -46.5t-134 46.5t-51 127.5v507h95v-507q0 -91 91 -91t91 91v507h94v-507z" />
    <glyph glyph-name="V" unicode="V" horiz-adv-x="429" 
d="M421 666l-161 -666h-91l-157 666h99l107 -515l107 515h96z" />
    <glyph glyph-name="W" unicode="W" horiz-adv-x="618" 
d="M610 666l-123 -666h-92l-84 459l-90 -459h-92l-117 666h96l70 -492l94 492h86l86 -492l73 492h93z" />
    <glyph glyph-name="X" unicode="X" horiz-adv-x="432" 
d="M424 0h-102l-105 255l-106 -255h-97l155 339l-146 327h102l97 -247l98 247h97l-146 -323z" />
    <glyph glyph-name="Y" unicode="Y" horiz-adv-x="407" 
d="M412 666l-160 -398v-268h-94v268l-161 398h102l109 -307l109 307h95z" />
    <glyph glyph-name="Z" unicode="Z" horiz-adv-x="413" 
d="M389 623l-244 -537h235v-86h-355v43l247 536h-234v87h351v-43z" />
    <glyph glyph-name="bracketleft" unicode="[" horiz-adv-x="295" 
d="M296 -150h-195v903h195v-70h-118v-764h118v-69z" />
    <glyph glyph-name="backslash" unicode="\" horiz-adv-x="262" 
d="M262 -64h-64l-200 793h65z" />
    <glyph glyph-name="bracketright" unicode="]" horiz-adv-x="295" 
d="M194 -150h-195v69h118v764h-118v70h195v-903z" />
    <glyph glyph-name="asciicircum" unicode="^" horiz-adv-x="275" 
d="M264 549q-23 -7 -44 -7q-31 0 -53 21t-31 57q-8 -36 -31 -57t-54 -21q-15 0 -39 7v26q65 0 90 91h73q25 -91 89 -91v-26z" />
    <glyph glyph-name="underscore" unicode="_" horiz-adv-x="337" 
d="M337 -76h-337v76h337v-76z" />
    <glyph glyph-name="grave" unicode="`" horiz-adv-x="178" 
d="M150 538h-54l-77 135h90z" />
    <glyph glyph-name="a" unicode="a" horiz-adv-x="372" 
d="M347 -8h-25q-61 0 -62 58q-43 -58 -114 -58q-53 0 -84.5 32.5t-31.5 88.5v11q0 38 17 66.5t49 45.5t65.5 27t78.5 17v65q0 58 -57 58q-33 0 -45 -14.5t-12 -47.5v-24h-79v27q0 58 34.5 95t101.5 37q137 0 137 -147v-248q0 -26 27 -26v-63zM240 132v89q-131 -16 -131 -93
v-12q0 -24 13.5 -39.5t38.5 -15.5q31 0 55 20.5t24 50.5z" />
    <glyph glyph-name="b" unicode="b" horiz-adv-x="385" 
d="M345 129q0 -63 -33 -100t-87 -37q-82 0 -109 72l-13 -64h-55v666h83v-258q35 68 108 68q51 0 78.5 -37.5t27.5 -98.5v-211zM263 141v180q0 82 -63 82q-32 0 -50.5 -20.5t-18.5 -56.5v-190q0 -36 19.5 -56.5t47.5 -20.5q65 0 65 82z" />
    <glyph glyph-name="c" unicode="c" horiz-adv-x="357" 
d="M325 145q0 -72 -36 -112.5t-103 -40.5q-68 0 -107 41.5t-39 113.5v172q0 72 39.5 114.5t106.5 42.5t103 -41t36 -113v-20h-74v33q0 31 -16.5 50t-47.5 19q-65 0 -65 -74v-193q0 -73 65 -73q31 0 47.5 18.5t16.5 50.5v32h74v-20z" />
    <glyph glyph-name="d" unicode="d" horiz-adv-x="385" 
d="M338 0h-62l-6 64q-28 -72 -109 -72q-54 0 -87.5 37t-33.5 100v203q0 65 32 104.5t82 39.5q35 0 57.5 -13t42.5 -41v244h84v-666zM254 136v192q0 36 -18 57t-49 21q-65 0 -65 -82v-183q0 -82 65 -82q28 0 47.5 20.5t19.5 56.5z" />
    <glyph glyph-name="e" unicode="e" horiz-adv-x="359" 
d="M325 145q0 -72 -36 -112.5t-103 -40.5q-68 0 -107 41.5t-39 113.5v172q0 72 39.5 114.5t106.5 42.5q66 0 102.5 -42.5t36.5 -114.5v-90h-203v-95q0 -33 16.5 -52t48.5 -19q31 0 47.5 19t16.5 52v32h74v-21zM251 277v56q0 32 -16.5 51.5t-47.5 19.5t-48 -19.5t-17 -51.5
v-56h129z" />
    <glyph glyph-name="f" unicode="f" horiz-adv-x="234" 
d="M222 393h-64v-393h-85v393h-54v70h54v49q0 73 31.5 113.5t92.5 40.5h34v-71h-23q-55 0 -55 -66v-66h69v-70z" />
    <glyph glyph-name="g" unicode="g" horiz-adv-x="370" 
d="M366 480q0 -27 -14 -41.5t-33 -14.5q-22 0 -34 7q44 -38 44 -94v-35q0 -60 -39.5 -98.5t-102.5 -38.5q-25 0 -40 5q-16 0 -28 -12t-12 -26q0 -39 100 -39q74 0 110.5 -28t36.5 -78v-22q0 -58 -44.5 -97t-117.5 -39q-71 0 -117.5 31.5t-46.5 82.5v17q0 61 75 81
q-32 8 -49 27.5t-17 43.5q0 25 20.5 47t49.5 26q-62 31 -62 120v30q0 60 41 100.5t101 40.5q21 0 41.5 -5.5t22.5 -5.5q53 0 53 56h59q3 -21 3 -41zM253 300v39q0 30 -18 50.5t-48 20.5t-48.5 -20.5t-18.5 -50.5v-39q0 -30 18 -50.5t49 -20.5q30 0 48 20.5t18 50.5zM278 -43
v20q0 50 -86 50q-44 0 -66.5 -14.5t-22.5 -37.5v-20q0 -24 22.5 -40t66.5 -16q43 0 64.5 17t21.5 41z" />
    <glyph glyph-name="h" unicode="h" horiz-adv-x="393" 
d="M348 0h-85v342q0 30 -15 47.5t-41 17.5q-32 0 -53.5 -35.5t-21.5 -65.5v-306h-84v666h84v-277q15 42 45.5 64t64.5 22q48 0 77 -35.5t29 -94.5v-345z" />
    <glyph glyph-name="i" unicode="i" horiz-adv-x="180" 
d="M129 543h-78v89h78v-89zM132 0h-84v468h84v-468z" />
    <glyph glyph-name="j" unicode="j" horiz-adv-x="180" 
d="M129 543h-78v89h78v-89zM132 -31q0 -134 -115 -134h-31v64h11q29 0 40 11.5t11 35.5v522h84v-499z" />
    <glyph glyph-name="k" unicode="k" horiz-adv-x="369" 
d="M359 0h-87l-88 207l-52 -84v-123h-84v666h84v-431l130 234h84l-110 -197z" />
    <glyph glyph-name="l" unicode="l" horiz-adv-x="180" 
d="M132 0h-84v666h84v-666z" />
    <glyph glyph-name="m" unicode="m" horiz-adv-x="552" 
d="M506 0h-83v349q0 57 -44 57q-31 0 -45 -33.5t-14 -67.5v-305h-85v350q0 57 -42 57q-22 0 -36.5 -19.5t-19.5 -40.5t-5 -41v-306h-84v468h71l5 -80q33 87 105 87q64 0 85 -75q32 75 100 75q44 0 68 -31.5t24 -88.5v-355z" />
    <glyph glyph-name="n" unicode="n" horiz-adv-x="394" 
d="M348 0h-85v342q0 30 -15 47.5t-41 17.5q-33 0 -54 -35.5t-21 -65.5v-306h-84v468h70l6 -93q35 100 110 100q55 0 84.5 -35t29.5 -95v-345z" />
    <glyph glyph-name="o" unicode="o" horiz-adv-x="374" 
d="M333 147q0 -72 -39 -113.5t-107 -41.5t-107.5 41.5t-39.5 113.5v172q0 71 40 114t107 43t106.5 -42.5t39.5 -114.5v-172zM251 133v202q0 31 -16.5 50t-47.5 19t-47.5 -19t-16.5 -50v-202q0 -32 16.5 -50.5t47.5 -18.5t47.5 18.5t16.5 50.5z" />
    <glyph glyph-name="p" unicode="p" horiz-adv-x="385" 
d="M344 122q0 -57 -30.5 -93.5t-75.5 -36.5q-68 0 -107 54v-208h-83v630h62l6 -64q27 72 109 72q54 0 86.5 -37t32.5 -100v-217zM262 147v180q0 82 -64 82q-28 0 -47.5 -20.5t-19.5 -57.5v-189q0 -36 18 -57t49 -21q64 0 64 83z" />
    <glyph glyph-name="q" unicode="q" horiz-adv-x="385" 
d="M338 -163h-84v222q-34 -68 -112 -68q-42 0 -72 37t-30 93v216q0 63 33 100.5t88 37.5q82 0 109 -73l13 65h55v-630zM254 141v189q0 37 -19.5 57.5t-47.5 20.5q-65 0 -65 -82v-181q0 -82 65 -82q31 0 49 20.5t18 57.5z" />
    <glyph glyph-name="r" unicode="r" horiz-adv-x="264" 
d="M252 386q-120 15 -120 -58v-328h-84v468h70l7 -83q17 56 48 75.5t79 10.5v-85z" />
    <glyph glyph-name="s" unicode="s" horiz-adv-x="344" 
d="M315 122q0 -54 -38 -92t-102 -38q-69 0 -106 37.5t-37 99.5v23h70v-21q0 -71 72 -71q64 0 64 56q0 30 -16.5 49.5t-65.5 43.5q-117 49 -117 140q0 54 38 90.5t98 36.5q135 0 135 -129v-18h-68v20q0 55 -66 55q-28 0 -44 -13t-16 -35q0 -27 19.5 -46t73.5 -44
q56 -24 81 -59t25 -85z" />
    <glyph glyph-name="t" unicode="t" horiz-adv-x="239" 
d="M220 393h-64v-246q0 -95 25 -147h-86q-24 51 -24 147v246h-54v70h59v84l80 27v-111h64v-70z" />
    <glyph glyph-name="u" unicode="u" horiz-adv-x="395" 
d="M347 0h-70l-6 80q-31 -88 -110 -88q-55 0 -84.5 35t-29.5 95v346h85v-343q0 -31 15 -48.5t41 -17.5q32 0 53.5 35.5t21.5 65.5v308h84v-468z" />
    <glyph glyph-name="v" unicode="v" horiz-adv-x="338" 
d="M329 468l-120 -468h-80l-121 468h83l58 -260l20 -106l21 106l56 260h83z" />
    <glyph glyph-name="w" unicode="w" horiz-adv-x="497" 
d="M488 468l-103 -468h-74l-43 194l-19 106l-20 -106l-44 -194h-74l-103 468h83l41 -258l17 -106l18 106l50 258h71l42 -258l18 -106l17 106l49 258h74z" />
    <glyph glyph-name="x" unicode="x" horiz-adv-x="333" 
d="M327 0h-85l-74 165l-74 -165h-84l119 234l-119 234h85l74 -165l74 165h84l-118 -234z" />
    <glyph glyph-name="y" unicode="y" horiz-adv-x="338" 
d="M328 468l-127 -499q-18 -71 -43.5 -102.5t-84.5 -31.5h-31v67h24q29 0 40 9.5t18 34.5l8 40l-124 482h84l56 -259l20 -105l21 105l56 259h83z" />
    <glyph glyph-name="z" unicode="z" horiz-adv-x="316" 
d="M295 417l-182 -348h176v-69h-266v51l184 348h-175v69h263v-51z" />
    <glyph glyph-name="braceleft" unicode="{" horiz-adv-x="320" 
d="M269 -150h-35q-72 0 -109.5 39.5t-37.5 100.5q0 44 20 91t39.5 84.5t19.5 57.5q0 26 -15 38t-52 12h-32v56h32q37 0 52 12t15 38q0 21 -19.5 58t-39.5 84t-20 91q0 61 37.5 101t109.5 40h35v-67h-36q-33 0 -49.5 -18.5t-16.5 -50.5q0 -41 33.5 -116t33.5 -100
q0 -81 -87 -100q87 -19 87 -99q0 -26 -33.5 -100.5t-33.5 -115.5q0 -70 66 -70h36v-66z" />
    <glyph glyph-name="bar" unicode="|" horiz-adv-x="170" 
d="M116 -64h-62v793h62v-793z" />
    <glyph glyph-name="braceright" unicode="}" horiz-adv-x="320" 
d="M253 273h-32q-37 0 -52 -12t-15 -38q0 -20 20 -57.5t40 -84.5t20 -91q0 -61 -38 -100.5t-110 -39.5h-34v66h35q33 0 50 19t17 51q0 41 -34 115.5t-34 100.5q0 80 88 99q-88 19 -88 100q0 25 34 100t34 116q0 31 -17 50t-50 19h-35v67h34q72 0 110 -40t38 -101
q0 -44 -20 -91t-40 -84t-20 -58q0 -26 15 -38t52 -12h32v-56z" />
    <glyph glyph-name="asciitilde" unicode="~" horiz-adv-x="284" 
d="M272 350q0 -74 -68 -74q-26 0 -69.5 26.5t-53.5 26.5q-18 0 -18 -21v-33h-38q-13 19 -13 39q0 75 68 75q27 0 70.5 -26.5t52.5 -26.5q19 0 19 22v33h37q13 -17 13 -41z" />
    <glyph glyph-name="nbspace" unicode="&#xa0;" horiz-adv-x="82" 
 />
    <glyph glyph-name="exclamdown" unicode="&#xa1;" horiz-adv-x="191" 
d="M137 357h-83v111h83v-111zM142 -198h-92v290l33 190h26l33 -190v-290z" />
    <glyph glyph-name="cent" unicode="&#xa2;" horiz-adv-x="366" 
d="M159 572v94h72v-96q47 -11 73.5 -48.5t26.5 -93.5v-26h-77v37q0 29 -16 46.5t-45 17.5q-28 0 -44 -17.5t-16 -46.5v-210q0 -30 16 -47t44 -17q29 0 45 17t16 47v36h77v-27q0 -56 -26.5 -93.5t-73.5 -48.5v-96h-72v94q-51 11 -81.5 49t-30.5 95v190q0 57 30.5 95.5
t81.5 48.5z" />
    <glyph glyph-name="sterling" unicode="&#xa3;" horiz-adv-x="475" 
d="M452 131q0 -146 -120 -146q-82 0 -140 51q-43 -51 -101 -51q-43 0 -68.5 24.5t-25.5 62.5q0 42 27.5 68.5t77.5 26.5q32 0 69 -25q25 35 25 87q0 40 -19 70h-125v76h91q-33 71 -33 131q0 74 43 124.5t125 50.5q75 0 116.5 -46t41.5 -113v-48h-80v35q0 42 -20 67t-59 25
q-79 0 -79 -93q0 -60 39 -133h133v-76h-101q10 -38 10 -66q0 -70 -42 -134q43 -34 82 -34q53 0 53 58v78h80v-70zM141 81q-26 22 -46 22q-14 0 -22 -7t-8 -18q0 -10 8 -17.5t22 -7.5q30 0 46 28z" />
    <glyph glyph-name="currency" unicode="&#xa4;" horiz-adv-x="436" 
d="M133 373h210v-80h-210v-132q0 -42 24 -66.5t70 -24.5t70 25t24 70v47h84v-51q0 -79 -45.5 -127.5t-135.5 -48.5q-89 0 -134 52.5t-45 131.5v328q0 79 45 131.5t134 52.5q90 0 135.5 -48.5t45.5 -127.5v-51h-84v47q0 45 -24 70t-70 25t-70 -25t-24 -66v-132z" />
    <glyph glyph-name="yen" unicode="&#xa5;" horiz-adv-x="433" 
d="M259 279v-67h133v-80h-133v-132h-89v132h-135v80h135v67h-135v78h107l-122 309h98l99 -284l99 284h97l-124 -309h103v-78h-133z" />
    <glyph glyph-name="section" unicode="&#xa7;" horiz-adv-x="433" 
d="M403 241q0 -86 -70 -130q63 -55 63 -122q0 -63 -47 -107t-130 -44q-88 0 -137 42t-49 116v28h86v-33q0 -34 25.5 -54.5t68.5 -20.5q94 0 94 67q0 29 -27.5 55.5t-66.5 49t-78.5 47t-67 60t-27.5 78.5q0 74 73 129q-63 54 -63 123q0 66 43 111t125 45q88 0 130.5 -45.5
t42.5 -116.5v-23h-85v30q0 75 -89 75q-76 0 -76 -70q0 -29 27 -55t65.5 -48.5t77 -47t65.5 -60.5t27 -79zM322 222q0 35 -32 66.5t-119 76.5q-20 -9 -32.5 -29t-12.5 -41q0 -36 27.5 -63.5t123.5 -77.5q19 9 32 27t13 41z" />
    <glyph glyph-name="dieresis" unicode="&#xa8;" horiz-adv-x="231" 
d="M218 566h-75v90h75v-90zM88 566h-75v90h75v-90z" />
    <glyph glyph-name="copyright" unicode="&#xa9;" horiz-adv-x="680" 
d="M658 326q0 -133 -91.5 -226t-226.5 -93t-226.5 93t-91.5 226t91.5 226.5t226.5 93.5t226.5 -93.5t91.5 -226.5zM608 326q0 116 -75.5 195t-192.5 79t-192.5 -79t-75.5 -195q0 -115 75.5 -194.5t192.5 -79.5t192.5 79.5t75.5 194.5zM448 268q0 -41 -28 -66.5t-75 -25.5
q-48 0 -78 26.5t-30 67.5v112q0 41 30 67.5t78 26.5q47 0 75 -25.5t28 -66.5v-19h-49v18q0 22 -14 36t-39 14q-26 0 -39.5 -14.5t-13.5 -37.5v-110q0 -22 13.5 -37t39.5 -15q25 0 39 14t14 36v19h49v-20z" />
    <glyph glyph-name="ordfeminine" unicode="&#xaa;" horiz-adv-x="314" 
d="M294 312h-27q-49 0 -49 46q-36 -46 -94 -46q-43 0 -68 25t-25 68v7q0 57 46.5 83t124.5 35v49q0 45 -47 45q-27 0 -36.5 -11.5t-9.5 -37.5v-15h-64v18q0 45 28 73.5t82 28.5q111 0 111 -115v-183q0 -11 5 -15t23 -4v-51zM202 420v67q-108 -13 -108 -71v-7q0 -19 11 -31
t32 -12q25 0 45 15.5t20 38.5z" />
    <glyph glyph-name="guillemotleft" unicode="&#xab;" horiz-adv-x="411" 
d="M379 0h-49q-12 56 -49 100t-87 59v69q50 15 87 59t49 100h49q0 -59 -28.5 -112t-76.5 -82q48 -29 76.5 -81.5t28.5 -111.5zM208 0h-49q-12 56 -49 100t-87 59v69q50 15 87 59t49 100h49q0 -59 -28.5 -112t-76.5 -82q48 -29 76.5 -81.5t28.5 -111.5z" />
    <glyph glyph-name="logicalnot" unicode="&#xac;" horiz-adv-x="380" 
d="M331 249l-53 -53l-89 89l-88 -89l-52 52l88 89l-88 89l53 52l89 -89l88 89l52 -52l-89 -88z" />
    <glyph glyph-name="registered" unicode="&#xae;" horiz-adv-x="680" 
d="M658 326q0 -133 -91.5 -226t-226.5 -93t-226.5 93t-91.5 226t91.5 226.5t226.5 93.5t226.5 -93.5t91.5 -226.5zM608 326q0 116 -75.5 195t-192.5 79t-192.5 -79t-75.5 -195q0 -115 75.5 -194.5t192.5 -79.5t192.5 79.5t75.5 194.5zM465 183h-15q-32 0 -44 10t-12 37v33
q0 42 -38 42h-55v-119h-55v284h116q85 0 85 -79v-5q0 -53 -48 -62q25 -2 37.5 -19.5t12.5 -40.5v-29q0 -13 16 -13v-39zM392 383v9q0 35 -35 35h-56v-84h51q40 0 40 40z" />
    <glyph glyph-name="macron" unicode="&#xaf;" horiz-adv-x="251" 
d="M240 572h-229v60h229v-60z" />
    <glyph glyph-name="degree" unicode="&#xb0;" horiz-adv-x="283" 
d="M264 561q0 -49 -34.5 -84t-87.5 -35t-88 35t-35 84t35 84.5t88 35.5t87.5 -35.5t34.5 -84.5zM202 561q0 29 -16 47.5t-44 18.5t-44 -18.5t-16 -47.5q0 -30 16 -48t44 -18t44 18t16 48z" />
    <glyph glyph-name="plusminus" unicode="&#xb1;" horiz-adv-x="507" 
d="M483 0h-459v480h459v-480zM432 49v382h-357v-382h357z" />
    <glyph glyph-name="acute" unicode="&#xb4;" horiz-adv-x="178" 
d="M173 673l-76 -135h-55l42 135h89z" />
    <glyph glyph-name="paragraph" unicode="&#xb6;" horiz-adv-x="548" 
d="M494 -156h-68v747h-67v-747h-69v347h-39q-91 0 -151 63.5t-60 165.5v16q0 103 60 166.5t151 63.5h243v-822zM290 273v318h-19q-35 0 -56 -24t-21 -66v-144q0 -41 21 -62.5t56 -21.5h19z" />
    <glyph glyph-name="cedilla" unicode="&#xb8;" horiz-adv-x="191" 
d="M192 -148q0 -35 -25 -59t-63 -24q-26 0 -37 9v32h21q40 0 40 34v24q0 37 -40 37q-25 0 -47 -26l-31 22l85 119l32 -23l-49 -67q9 7 35 7q38 0 58.5 -23.5t20.5 -61.5z" />
    <glyph glyph-name="ordmasculine" unicode="&#xba;" horiz-adv-x="293" 
d="M266 431q0 -54 -33.5 -86.5t-85.5 -32.5t-85.5 32.5t-33.5 86.5v130q0 54 33.5 86.5t85.5 32.5t85.5 -32.5t33.5 -86.5v-130zM199 417v158q0 23 -14.5 38t-37.5 15q-24 0 -38.5 -15t-14.5 -38v-158q0 -23 14.5 -37.5t38.5 -14.5q23 0 37.5 14.5t14.5 37.5z" />
    <glyph glyph-name="guillemotright" unicode="&#xbb;" horiz-adv-x="411" 
d="M388 159q-50 -15 -87 -59t-49 -100h-48q0 59 28 111.5t77 81.5q-49 29 -77 82t-28 112h48q12 -56 49 -100t87 -59v-69zM217 159q-50 -15 -87 -59t-49 -100h-48q0 59 28 111.5t77 81.5q-49 29 -77 82t-28 112h48q12 -56 49 -100t87 -59v-69z" />
    <glyph glyph-name="questiondown" unicode="&#xbf;" horiz-adv-x="330" 
d="M133 468h82v-111h-82v111zM-15 -47q0 104 101 200q31 29 41.5 53.5t10.5 61.5h67q0 -55 -17 -88t-75 -110q-39 -54 -39 -115q0 -48 18.5 -69t58.5 -21q78 0 78 95v62h80v-71q0 -73 -39 -118t-116 -45q-87 0 -128 46.5t-41 118.5z" />
    <glyph glyph-name="Agrave" unicode="&#xc0;" horiz-adv-x="417" 
d="M409 0h-96l-35 163h-144l-35 -163h-92l151 666h100zM261 244l-55 273l-55 -273h110zM231 704h-54l-77 135h90z" />
    <glyph glyph-name="Aacute" unicode="&#xc1;" horiz-adv-x="417" 
d="M409 0h-96l-35 163h-144l-35 -163h-92l151 666h100zM261 244l-55 273l-55 -273h110zM308 839l-76 -135h-55l42 135h89z" />
    <glyph glyph-name="Acircumflex" unicode="&#xc2;" horiz-adv-x="417" 
d="M409 0h-96l-35 163h-144l-35 -163h-92l151 666h100zM261 244l-55 273l-55 -273h110zM332 714q-23 -7 -44 -7q-31 0 -53 21t-31 57q-8 -36 -31 -57t-54 -21q-15 0 -39 7v25q65 0 90 92h73q25 -92 89 -92v-25z" />
    <glyph glyph-name="Atilde" unicode="&#xc3;" horiz-adv-x="417" 
d="M409 0h-96l-35 163h-144l-35 -163h-92l151 666h100zM261 244l-55 273l-55 -273h110zM330 793q0 -74 -68 -74q-26 0 -69.5 26.5t-53.5 26.5q-18 0 -18 -21v-33h-38q-13 20 -13 40q0 74 68 74q27 0 70.5 -26.5t52.5 -26.5q19 0 19 22v33h37q13 -17 13 -41z" />
    <glyph glyph-name="Adieresis" unicode="&#xc4;" horiz-adv-x="417" 
d="M409 0h-96l-35 163h-144l-35 -163h-92l151 666h100zM261 244l-55 273l-55 -273h110zM302 732h-75v90h75v-90zM172 732h-75v90h75v-90z" />
    <glyph glyph-name="Aring" unicode="&#xc5;" horiz-adv-x="417" 
d="M175 666q-22 9 -35.5 29.5t-13.5 44.5q0 33 23.5 57t58.5 24t58 -24t23 -57q0 -24 -13.5 -44.5t-35.5 -29.5h18l151 -666h-96l-35 163h-144l-35 -163h-92l151 666h17zM248 740q0 20 -10.5 32.5t-29.5 12.5t-29.5 -12.5t-10.5 -32.5t10.5 -32.5t29.5 -12.5t29.5 12.5
t10.5 32.5zM261 244l-55 273l-55 -273h110z" />
    <glyph glyph-name="AE" unicode="&#xc6;" horiz-adv-x="633" 
d="M605 0h-310v163h-132l-61 -163h-97l253 666h347v-86h-216v-190h156v-82h-156v-222h216v-86zM295 245v299l-101 -299h101z" />
    <glyph glyph-name="Ccedilla" unicode="&#xc7;" horiz-adv-x="444" 
d="M193 -12q-71 12 -109.5 62.5t-38.5 119.5v326q0 79 48 131.5t138 52.5t135.5 -48.5t45.5 -126.5v-72h-85v70q0 43 -24 68t-69 25q-46 0 -70 -24.5t-24 -64.5v-348q0 -40 24 -64.5t70 -24.5t69.5 24.5t23.5 68.5v70h85v-72q0 -76 -44 -125t-130 -51l-40 -55q10 7 36 7
q38 0 58.5 -23.5t20.5 -61.5q0 -35 -25 -59t-63 -24q-26 0 -37 9v32h20q41 0 41 34v24q0 37 -41 37q-25 0 -47 -26l-30 22z" />
    <glyph glyph-name="Egrave" unicode="&#xc8;" horiz-adv-x="393" 
d="M364 0h-310v666h310v-86h-216v-190h156v-82h-156v-222h216v-86zM242 704h-54l-77 135h90z" />
    <glyph glyph-name="Eacute" unicode="&#xc9;" horiz-adv-x="393" 
d="M364 0h-310v666h310v-86h-216v-190h156v-82h-156v-222h216v-86zM300 839l-76 -135h-55l42 135h89z" />
    <glyph glyph-name="Ecircumflex" unicode="&#xca;" horiz-adv-x="393" 
d="M364 0h-310v666h310v-86h-216v-190h156v-82h-156v-222h216v-86zM330 714q-23 -7 -44 -7q-31 0 -53 21t-31 57q-8 -36 -31 -57t-54 -21q-15 0 -39 7v25q65 0 90 92h73q25 -92 89 -92v-25z" />
    <glyph glyph-name="Edieresis" unicode="&#xcb;" horiz-adv-x="393" 
d="M364 0h-310v666h310v-86h-216v-190h156v-82h-156v-222h216v-86zM306 732h-75v90h75v-90zM176 732h-75v90h75v-90z" />
    <glyph glyph-name="Igrave" unicode="&#xcc;" horiz-adv-x="202" 
d="M149 0h-95v666h95v-666zM127 704h-54l-77 135h90z" />
    <glyph glyph-name="Iacute" unicode="&#xcd;" horiz-adv-x="202" 
d="M149 0h-95v666h95v-666zM199 839l-76 -135h-55l42 135h89z" />
    <glyph glyph-name="Icircumflex" unicode="&#xce;" horiz-adv-x="202" 
d="M149 0h-95v666h95v-666zM227 714q-23 -7 -44 -7q-31 0 -53 21t-31 57q-8 -36 -31 -57t-54 -21q-15 0 -39 7v25q65 0 90 92h73q25 -92 89 -92v-25z" />
    <glyph glyph-name="Idieresis" unicode="&#xcf;" horiz-adv-x="202" 
d="M149 0h-95v666h95v-666zM202 732h-75v90h75v-90zM72 732h-75v90h75v-90z" />
    <glyph glyph-name="Eth" unicode="&#xd0;" horiz-adv-x="508" 
d="M97 293h-91v79h91v294h187q89 0 134 -49.5t45 -130.5v-306q0 -81 -45 -130.5t-134 -49.5h-187v293zM191 372h88v-79h-88v-207h87q91 0 91 98v297q0 98 -91 98h-87v-207z" />
    <glyph glyph-name="Ntilde" unicode="&#xd1;" horiz-adv-x="484" 
d="M431 0h-67l-165 324l-56 117v-441h-90v666h77l158 -330l53 -117v447h90v-666zM365 793q0 -74 -68 -74q-26 0 -69.5 26.5t-53.5 26.5q-18 0 -18 -21v-33h-38q-13 20 -13 40q0 74 68 74q27 0 70.5 -26.5t52.5 -26.5q19 0 19 22v33h37q13 -17 13 -41z" />
    <glyph glyph-name="Ograve" unicode="&#xd2;" 
d="M417 176q0 -86 -47.5 -138.5t-138.5 -52.5q-90 0 -138 53t-48 138v314q0 85 48 137.5t138 52.5q91 0 138.5 -52.5t47.5 -137.5v-314zM323 168v330q0 44 -23.5 71t-68.5 27t-68 -26.5t-23 -71.5v-330q0 -45 23 -71.5t68 -26.5t68.5 27t23.5 71zM256 704h-54l-77 135h90z
" />
    <glyph glyph-name="Oacute" unicode="&#xd3;" 
d="M417 176q0 -86 -47.5 -138.5t-138.5 -52.5q-90 0 -138 53t-48 138v314q0 85 48 137.5t138 52.5q91 0 138.5 -52.5t47.5 -137.5v-314zM323 168v330q0 44 -23.5 71t-68.5 27t-68 -26.5t-23 -71.5v-330q0 -45 23 -71.5t68 -26.5t68.5 27t23.5 71zM332 839l-76 -135h-55
l42 135h89z" />
    <glyph glyph-name="Ocircumflex" unicode="&#xd4;" 
d="M417 176q0 -86 -47.5 -138.5t-138.5 -52.5q-90 0 -138 53t-48 138v314q0 85 48 137.5t138 52.5q91 0 138.5 -52.5t47.5 -137.5v-314zM323 168v330q0 44 -23.5 71t-68.5 27t-68 -26.5t-23 -71.5v-330q0 -45 23 -71.5t68 -26.5t68.5 27t23.5 71zM358 714q-23 -7 -44 -7
q-31 0 -53 21t-31 57q-8 -36 -31 -57t-54 -21q-15 0 -39 7v25q65 0 90 92h73q25 -92 89 -92v-25z" />
    <glyph glyph-name="Otilde" unicode="&#xd5;" 
d="M417 176q0 -86 -47.5 -138.5t-138.5 -52.5q-90 0 -138 53t-48 138v314q0 85 48 137.5t138 52.5q91 0 138.5 -52.5t47.5 -137.5v-314zM323 168v330q0 44 -23.5 71t-68.5 27t-68 -26.5t-23 -71.5v-330q0 -45 23 -71.5t68 -26.5t68.5 27t23.5 71zM353 793q0 -74 -68 -74
q-26 0 -69.5 26.5t-53.5 26.5q-18 0 -18 -21v-33h-38q-13 20 -13 40q0 74 68 74q27 0 70.5 -26.5t52.5 -26.5q19 0 19 22v33h37q13 -17 13 -41z" />
    <glyph glyph-name="Odieresis" unicode="&#xd6;" 
d="M417 176q0 -86 -47.5 -138.5t-138.5 -52.5q-90 0 -138 53t-48 138v314q0 85 48 137.5t138 52.5q91 0 138.5 -52.5t47.5 -137.5v-314zM323 168v330q0 44 -23.5 71t-68.5 27t-68 -26.5t-23 -71.5v-330q0 -45 23 -71.5t68 -26.5t68.5 27t23.5 71zM335 732h-75v90h75v-90z
M205 732h-75v90h75v-90z" />
    <glyph glyph-name="multiply" unicode="&#xd7;" horiz-adv-x="380" 
d="M331 249l-53 -53l-89 89l-88 -89l-52 52l88 89l-88 89l53 52l89 -89l88 89l52 -52l-89 -88z" />
    <glyph glyph-name="Oslash" unicode="&#xd8;" 
d="M430 663q-16 -32 -36 -71q23 -42 23 -102v-314q0 -86 -47.5 -138.5t-138.5 -52.5q-75 0 -124 39l-7 -12l-12 -26l-7 -13l-49 30q1 2 3 5.5t6.5 12.5t8.5 17.5t8.5 16.5t7.5 13l2 5q-23 43 -23 103v314q0 85 48 137.5t138 52.5q76 0 124 -40l27 53zM311 553q-23 43 -80 43
q-45 0 -68 -26.5t-23 -71.5v-282zM323 168v283l-43 -85l-86 -168l-42 -85q23 -43 79 -43q45 0 68.5 27t23.5 71z" />
    <glyph glyph-name="Ugrave" unicode="&#xd9;" horiz-adv-x="475" 
d="M423 159q0 -81 -51.5 -127.5t-134.5 -46.5t-134 46.5t-51 127.5v507h95v-507q0 -91 91 -91t91 91v507h94v-507zM273 704h-54l-77 135h90z" />
    <glyph glyph-name="Uacute" unicode="&#xda;" horiz-adv-x="475" 
d="M423 159q0 -81 -51.5 -127.5t-134.5 -46.5t-134 46.5t-51 127.5v507h95v-507q0 -91 91 -91t91 91v507h94v-507zM339 839l-76 -135h-55l42 135h89z" />
    <glyph glyph-name="Ucircumflex" unicode="&#xdb;" horiz-adv-x="475" 
d="M423 159q0 -81 -51.5 -127.5t-134.5 -46.5t-134 46.5t-51 127.5v507h95v-507q0 -91 91 -91t91 91v507h94v-507zM370 714q-23 -7 -44 -7q-31 0 -53 21t-31 57q-8 -36 -31 -57t-54 -21q-15 0 -39 7v25q65 0 90 92h73q25 -92 89 -92v-25z" />
    <glyph glyph-name="Udieresis" unicode="&#xdc;" horiz-adv-x="475" 
d="M423 159q0 -81 -51.5 -127.5t-134.5 -46.5t-134 46.5t-51 127.5v507h95v-507q0 -91 91 -91t91 91v507h94v-507zM344 732h-75v90h75v-90zM214 732h-75v90h75v-90z" />
    <glyph glyph-name="Yacute" unicode="&#xdd;" horiz-adv-x="407" 
d="M412 666l-160 -398v-268h-94v268l-161 398h102l109 -307l109 307h95zM313 839l-76 -135h-55l42 135h89z" />
    <glyph glyph-name="Thorn" unicode="&#xde;" horiz-adv-x="430" 
d="M403 304q0 -153 -156 -153h-98v-151h-95v666h95v-116h98q79 0 117.5 -40.5t38.5 -113.5v-92zM308 301v97q0 70 -60 70h-99v-236h99q60 0 60 69z" />
    <glyph glyph-name="germandbls" unicode="&#xdf;" horiz-adv-x="385" 
d="M344 116q0 -59 -33 -91.5t-88 -32.5q-26 0 -40 11v35q78 0 78 66v166q0 54 -75 54v56q71 0 71 59v86q0 68 -60 68t-60 -71v-522h-85v509q0 71 36.5 114t104.5 43q73 0 110.5 -39.5t37.5 -106.5v-57q0 -36 -15 -65t-42 -41q60 -25 60 -105v-136z" />
    <glyph glyph-name="agrave" unicode="&#xe0;" horiz-adv-x="372" 
d="M347 -8h-25q-61 0 -62 58q-43 -58 -114 -58q-53 0 -84.5 32.5t-31.5 88.5v11q0 38 17 66.5t49 45.5t65.5 27t78.5 17v65q0 58 -57 58q-33 0 -45 -14.5t-12 -47.5v-24h-79v27q0 58 34.5 95t101.5 37q137 0 137 -147v-248q0 -26 27 -26v-63zM240 132v89q-131 -16 -131 -93
v-12q0 -24 13.5 -39.5t38.5 -15.5q31 0 55 20.5t24 50.5zM207 538h-54l-77 135h90z" />
    <glyph glyph-name="aacute" unicode="&#xe1;" horiz-adv-x="372" 
d="M347 -8h-25q-61 0 -62 58q-43 -58 -114 -58q-53 0 -84.5 32.5t-31.5 88.5v11q0 38 17 66.5t49 45.5t65.5 27t78.5 17v65q0 58 -57 58q-33 0 -45 -14.5t-12 -47.5v-24h-79v27q0 58 34.5 95t101.5 37q137 0 137 -147v-248q0 -26 27 -26v-63zM240 132v89q-131 -16 -131 -93
v-12q0 -24 13.5 -39.5t38.5 -15.5q31 0 55 20.5t24 50.5zM282 673l-76 -135h-55l42 135h89z" />
    <glyph glyph-name="acircumflex" unicode="&#xe2;" horiz-adv-x="372" 
d="M347 -8h-25q-61 0 -62 58q-43 -58 -114 -58q-53 0 -84.5 32.5t-31.5 88.5v11q0 38 17 66.5t49 45.5t65.5 27t78.5 17v65q0 58 -57 58q-33 0 -45 -14.5t-12 -47.5v-24h-79v27q0 58 34.5 95t101.5 37q137 0 137 -147v-248q0 -26 27 -26v-63zM240 132v89q-131 -16 -131 -93
v-12q0 -24 13.5 -39.5t38.5 -15.5q31 0 55 20.5t24 50.5zM312 548q-23 -7 -44 -7q-31 0 -53 21t-31 57q-8 -36 -31 -57t-54 -21q-15 0 -39 7v25q65 0 90 92h73q25 -92 89 -92v-25z" />
    <glyph glyph-name="atilde" unicode="&#xe3;" horiz-adv-x="372" 
d="M347 -8h-25q-61 0 -62 58q-43 -58 -114 -58q-53 0 -84.5 32.5t-31.5 88.5v11q0 38 17 66.5t49 45.5t65.5 27t78.5 17v65q0 58 -57 58q-33 0 -45 -14.5t-12 -47.5v-24h-79v27q0 58 34.5 95t101.5 37q137 0 137 -147v-248q0 -26 27 -26v-63zM240 132v89q-131 -16 -131 -93
v-12q0 -24 13.5 -39.5t38.5 -15.5q31 0 55 20.5t24 50.5zM308 627q0 -74 -68 -74q-26 0 -69.5 26.5t-53.5 26.5q-18 0 -18 -21v-33h-38q-13 20 -13 40q0 74 68 74q27 0 70.5 -26.5t52.5 -26.5q19 0 19 22v33h37q13 -17 13 -41z" />
    <glyph glyph-name="adieresis" unicode="&#xe4;" horiz-adv-x="372" 
d="M347 -8h-25q-61 0 -62 58q-43 -58 -114 -58q-53 0 -84.5 32.5t-31.5 88.5v11q0 38 17 66.5t49 45.5t65.5 27t78.5 17v65q0 58 -57 58q-33 0 -45 -14.5t-12 -47.5v-24h-79v27q0 58 34.5 95t101.5 37q137 0 137 -147v-248q0 -26 27 -26v-63zM240 132v89q-131 -16 -131 -93
v-12q0 -24 13.5 -39.5t38.5 -15.5q31 0 55 20.5t24 50.5zM281 566h-75v90h75v-90zM151 566h-75v90h75v-90z" />
    <glyph glyph-name="aring" unicode="&#xe5;" horiz-adv-x="372" 
d="M347 -8h-25q-61 0 -62 58q-43 -58 -114 -58q-53 0 -84.5 32.5t-31.5 88.5v11q0 38 17 66.5t49 45.5t65.5 27t78.5 17v65q0 58 -57 58q-33 0 -45 -14.5t-12 -47.5v-24h-79v27q0 58 34.5 95t101.5 37q137 0 137 -147v-248q0 -26 27 -26v-63zM240 132v89q-131 -16 -131 -93
v-12q0 -24 13.5 -39.5t38.5 -15.5q31 0 55 20.5t24 50.5zM263 619q0 -33 -23 -57t-58 -24t-58 24t-23 57t23 57t58 24t58 -24t23 -57zM223 619q0 45 -41 45q-19 0 -29.5 -12t-10.5 -33q0 -20 10.5 -32.5t29.5 -12.5t30 12t11 33z" />
    <glyph glyph-name="ae" unicode="&#xe6;" horiz-adv-x="559" 
d="M524 145q0 -69 -37 -111t-92 -42q-89 0 -123 64q-46 -64 -123 -64q-54 0 -86 32t-32 89v11q0 38 17 66.5t49 45.5t66 27t79 17v59q0 64 -59 64q-61 0 -61 -62v-24h-73v27q0 57 34 94.5t92 37.5q76 0 107 -61q36 61 113 61q58 0 93.5 -43t35.5 -114v-90h-203v-95
q0 -33 16.5 -52t48.5 -19q31 0 47.5 19t16.5 52v32h74v-21zM450 277v56q0 33 -16.5 52t-47.5 19t-48 -19.5t-17 -51.5v-56h129zM242 132v89q-131 -16 -131 -93v-12q0 -24 13 -39.5t39 -15.5q31 0 55 20.5t24 50.5z" />
    <glyph glyph-name="ccedilla" unicode="&#xe7;" horiz-adv-x="357" 
d="M145 -4q-49 11 -77 51t-28 100v172q0 72 39.5 114.5t106.5 42.5t103 -41t36 -113v-20h-74v33q0 31 -16.5 50t-47.5 19q-65 0 -65 -74v-193q0 -73 65 -73q31 0 47.5 18.5t16.5 50.5v32h74v-20q0 -71 -35 -111.5t-101 -41.5l-45 -62q10 7 35 7q38 0 59 -23.5t21 -61.5
q0 -35 -25 -59t-63 -24q-26 0 -37 9v32h20q41 0 41 34v24q0 37 -41 37q-25 0 -47 -26l-31 22z" />
    <glyph glyph-name="egrave" unicode="&#xe8;" horiz-adv-x="359" 
d="M325 145q0 -72 -36 -112.5t-103 -40.5q-68 0 -107 41.5t-39 113.5v172q0 72 39.5 114.5t106.5 42.5q66 0 102.5 -42.5t36.5 -114.5v-90h-203v-95q0 -33 16.5 -52t48.5 -19q31 0 47.5 19t16.5 52v32h74v-21zM251 277v56q0 32 -16.5 51.5t-47.5 19.5t-48 -19.5t-17 -51.5
v-56h129zM211 538h-54l-77 135h90z" />
    <glyph glyph-name="eacute" unicode="&#xe9;" horiz-adv-x="359" 
d="M325 145q0 -72 -36 -112.5t-103 -40.5q-68 0 -107 41.5t-39 113.5v172q0 72 39.5 114.5t106.5 42.5q66 0 102.5 -42.5t36.5 -114.5v-90h-203v-95q0 -33 16.5 -52t48.5 -19q31 0 47.5 19t16.5 52v32h74v-21zM251 277v56q0 32 -16.5 51.5t-47.5 19.5t-48 -19.5t-17 -51.5
v-56h129zM289 673l-76 -135h-55l42 135h89z" />
    <glyph glyph-name="ecircumflex" unicode="&#xea;" horiz-adv-x="359" 
d="M325 145q0 -72 -36 -112.5t-103 -40.5q-68 0 -107 41.5t-39 113.5v172q0 72 39.5 114.5t106.5 42.5q66 0 102.5 -42.5t36.5 -114.5v-90h-203v-95q0 -33 16.5 -52t48.5 -19q31 0 47.5 19t16.5 52v32h74v-21zM251 277v56q0 32 -16.5 51.5t-47.5 19.5t-48 -19.5t-17 -51.5
v-56h129zM305 548q-23 -7 -44 -7q-31 0 -53 21t-31 57q-8 -36 -31 -57t-54 -21q-15 0 -39 7v25q65 0 90 92h73q25 -92 89 -92v-25z" />
    <glyph glyph-name="edieresis" unicode="&#xeb;" horiz-adv-x="359" 
d="M325 145q0 -72 -36 -112.5t-103 -40.5q-68 0 -107 41.5t-39 113.5v172q0 72 39.5 114.5t106.5 42.5q66 0 102.5 -42.5t36.5 -114.5v-90h-203v-95q0 -33 16.5 -52t48.5 -19q31 0 47.5 19t16.5 52v32h74v-21zM251 277v56q0 32 -16.5 51.5t-47.5 19.5t-48 -19.5t-17 -51.5
v-56h129zM284 566h-75v90h75v-90zM154 566h-75v90h75v-90z" />
    <glyph glyph-name="igrave" unicode="&#xec;" horiz-adv-x="180" 
d="M132 0h-84v468h84v-468zM113 538h-54l-77 135h90z" />
    <glyph glyph-name="iacute" unicode="&#xed;" horiz-adv-x="180" 
d="M132 0h-84v468h84v-468zM193 673l-76 -135h-55l42 135h89z" />
    <glyph glyph-name="icircumflex" unicode="&#xee;" horiz-adv-x="180" 
d="M132 0h-84v468h84v-468zM218 548q-23 -7 -44 -7q-31 0 -53 21t-31 57q-8 -36 -31 -57t-54 -21q-15 0 -39 7v25q65 0 90 92h73q25 -92 89 -92v-25z" />
    <glyph glyph-name="idieresis" unicode="&#xef;" horiz-adv-x="180" 
d="M132 0h-84v468h84v-468zM190 566h-75v90h75v-90zM60 566h-75v90h75v-90z" />
    <glyph glyph-name="eth" unicode="&#xf0;" horiz-adv-x="376" 
d="M256 620l50 26l19 -46l-38 -20q49 -75 49 -182v-253q0 -70 -42 -111.5t-107 -41.5q-64 0 -105.5 41.5t-41.5 111.5v196q0 56 32.5 93t82.5 37q63 0 99 -53q0 71 -34 128l-58 -29l-18 46l46 24q-33 39 -85 76v3h99q30 -21 52 -46zM122 130q0 -29 18 -47t47 -18t47.5 18
t18.5 47v194q0 36 -17.5 56.5t-48.5 20.5q-65 0 -65 -79v-192z" />
    <glyph glyph-name="ntilde" unicode="&#xf1;" horiz-adv-x="394" 
d="M348 0h-85v342q0 30 -15 47.5t-41 17.5q-33 0 -54 -35.5t-21 -65.5v-306h-84v468h70l6 -93q35 100 110 100q55 0 84.5 -35t29.5 -95v-345zM317 627q0 -74 -68 -74q-26 0 -69.5 26.5t-53.5 26.5q-18 0 -18 -21v-33h-38q-13 20 -13 40q0 74 68 74q27 0 70.5 -26.5
t52.5 -26.5q19 0 19 22v33h37q13 -17 13 -41z" />
    <glyph glyph-name="ograve" unicode="&#xf2;" horiz-adv-x="374" 
d="M333 147q0 -72 -39 -113.5t-107 -41.5t-107.5 41.5t-39.5 113.5v172q0 71 40 114t107 43t106.5 -42.5t39.5 -114.5v-172zM251 133v202q0 31 -16.5 50t-47.5 19t-47.5 -19t-16.5 -50v-202q0 -32 16.5 -50.5t47.5 -18.5t47.5 18.5t16.5 50.5zM212 538h-54l-77 135h90z" />
    <glyph glyph-name="oacute" unicode="&#xf3;" horiz-adv-x="374" 
d="M333 147q0 -72 -39 -113.5t-107 -41.5t-107.5 41.5t-39.5 113.5v172q0 71 40 114t107 43t106.5 -42.5t39.5 -114.5v-172zM251 133v202q0 31 -16.5 50t-47.5 19t-47.5 -19t-16.5 -50v-202q0 -32 16.5 -50.5t47.5 -18.5t47.5 18.5t16.5 50.5zM291 673l-76 -135h-55l42 135
h89z" />
    <glyph glyph-name="ocircumflex" unicode="&#xf4;" horiz-adv-x="374" 
d="M333 147q0 -72 -39 -113.5t-107 -41.5t-107.5 41.5t-39.5 113.5v172q0 71 40 114t107 43t106.5 -42.5t39.5 -114.5v-172zM251 133v202q0 31 -16.5 50t-47.5 19t-47.5 -19t-16.5 -50v-202q0 -32 16.5 -50.5t47.5 -18.5t47.5 18.5t16.5 50.5zM316 548q-23 -7 -44 -7
q-31 0 -53 21t-31 57q-8 -36 -31 -57t-54 -21q-15 0 -39 7v25q65 0 90 92h73q25 -92 89 -92v-25z" />
    <glyph glyph-name="otilde" unicode="&#xf5;" horiz-adv-x="374" 
d="M333 147q0 -72 -39 -113.5t-107 -41.5t-107.5 41.5t-39.5 113.5v172q0 71 40 114t107 43t106.5 -42.5t39.5 -114.5v-172zM251 133v202q0 31 -16.5 50t-47.5 19t-47.5 -19t-16.5 -50v-202q0 -32 16.5 -50.5t47.5 -18.5t47.5 18.5t16.5 50.5zM309 627q0 -74 -68 -74
q-26 0 -69.5 26.5t-53.5 26.5q-18 0 -18 -21v-33h-38q-13 20 -13 40q0 74 68 74q27 0 70.5 -26.5t52.5 -26.5q19 0 19 22v33h37q13 -17 13 -41z" />
    <glyph glyph-name="odieresis" unicode="&#xf6;" horiz-adv-x="374" 
d="M333 147q0 -72 -39 -113.5t-107 -41.5t-107.5 41.5t-39.5 113.5v172q0 71 40 114t107 43t106.5 -42.5t39.5 -114.5v-172zM251 133v202q0 31 -16.5 50t-47.5 19t-47.5 -19t-16.5 -50v-202q0 -32 16.5 -50.5t47.5 -18.5t47.5 18.5t16.5 50.5zM290 566h-75v90h75v-90z
M160 566h-75v90h75v-90z" />
    <glyph glyph-name="oslash" unicode="&#xf8;" horiz-adv-x="375" 
d="M356 466q-40 -65 -41 -65q18 -34 18 -82v-172q0 -72 -39 -113.5t-107 -41.5q-63 0 -102 37l-33 -52l-32 25l38 62q-18 34 -18 83v172q0 71 40 114t107 43q64 0 103 -39l33 54zM246 366q-15 38 -59 38q-31 0 -47.5 -19t-16.5 -50v-167zM251 133v164l-122 -197
q15 -36 58 -36q31 0 47.5 18.5t16.5 50.5z" />
    <glyph glyph-name="ugrave" unicode="&#xf9;" horiz-adv-x="395" 
d="M347 0h-70l-6 80q-31 -88 -110 -88q-55 0 -84.5 35t-29.5 95v346h85v-343q0 -31 15 -48.5t41 -17.5q32 0 53.5 35.5t21.5 65.5v308h84v-468zM225 538h-54l-77 135h90z" />
    <glyph glyph-name="uacute" unicode="&#xfa;" horiz-adv-x="395" 
d="M347 0h-70l-6 80q-31 -88 -110 -88q-55 0 -84.5 35t-29.5 95v346h85v-343q0 -31 15 -48.5t41 -17.5q32 0 53.5 35.5t21.5 65.5v308h84v-468zM300 673l-76 -135h-55l42 135h89z" />
    <glyph glyph-name="ucircumflex" unicode="&#xfb;" horiz-adv-x="395" 
d="M347 0h-70l-6 80q-31 -88 -110 -88q-55 0 -84.5 35t-29.5 95v346h85v-343q0 -31 15 -48.5t41 -17.5q32 0 53.5 35.5t21.5 65.5v308h84v-468zM324 548q-23 -7 -44 -7q-31 0 -53 21t-31 57q-8 -36 -31 -57t-54 -21q-15 0 -39 7v25q65 0 90 92h73q25 -92 89 -92v-25z" />
    <glyph glyph-name="udieresis" unicode="&#xfc;" horiz-adv-x="395" 
d="M347 0h-70l-6 80q-31 -88 -110 -88q-55 0 -84.5 35t-29.5 95v346h85v-343q0 -31 15 -48.5t41 -17.5q32 0 53.5 35.5t21.5 65.5v308h84v-468zM300 566h-75v90h75v-90zM170 566h-75v90h75v-90z" />
    <glyph glyph-name="yacute" unicode="&#xfd;" horiz-adv-x="338" 
d="M328 468l-127 -499q-18 -71 -43.5 -102.5t-84.5 -31.5h-31v67h24q29 0 40 9.5t18 34.5l8 40l-124 482h84l56 -259l20 -105l21 105l56 259h83zM274 673l-76 -135h-55l42 135h89z" />
    <glyph glyph-name="thorn" unicode="&#xfe;" horiz-adv-x="385" 
d="M345 122q0 -56 -30.5 -93t-75.5 -37q-37 0 -61.5 12.5t-46.5 41.5v-208h-83v828h83v-243q40 53 108 53q45 0 75.5 -36.5t30.5 -93.5v-224zM263 147v175q0 82 -64 82q-32 0 -50 -20.5t-18 -56.5v-185q0 -36 18 -56.5t50 -20.5q64 0 64 82z" />
    <glyph glyph-name="ydieresis" unicode="&#xff;" horiz-adv-x="338" 
d="M328 468l-127 -499q-18 -71 -43.5 -102.5t-84.5 -31.5h-31v67h24q29 0 40 9.5t18 34.5l8 40l-124 482h84l56 -259l20 -105l21 105l56 259h83zM273 566h-75v90h75v-90zM143 566h-75v90h75v-90z" />
    <glyph glyph-name="dotlessi" unicode="&#x131;" horiz-adv-x="180" 
d="M132 0h-84v468h84v-468z" />
    <glyph glyph-name="Lslash" unicode="&#x141;" horiz-adv-x="378" 
d="M191 315v-229h211v-86h-306v254l-76 -48l-21 49l97 63v348h95v-287l75 48l21 -49z" />
    <glyph glyph-name="lslash" unicode="&#x142;" horiz-adv-x="242" 
d="M254 422l-91 -88v-334h-84v255l-63 -62l-31 43l94 91v339h84v-260l59 58z" />
    <glyph glyph-name="OE" unicode="&#x152;" horiz-adv-x="656" 
d="M627 0h-393q-94 0 -141.5 52t-47.5 141v280q0 89 47.5 141t141.5 52h393v-86h-215v-190h156v-82h-156v-222h215v-86zM317 86v493h-79q-51 0 -74.5 -25.5t-23.5 -81.5v-279q0 -55 24 -81t74 -26h79z" />
    <glyph glyph-name="oe" unicode="&#x153;" horiz-adv-x="570" 
d="M536 145q0 -71 -35.5 -112t-94.5 -41q-78 0 -114 62q-34 -62 -115 -62q-59 0 -98 42.5t-39 112.5v172q0 70 39.5 113.5t97.5 43.5q80 0 115 -63q36 63 114 63q59 0 94.5 -43t35.5 -114v-90h-203v-95q0 -33 16.5 -52t47.5 -19q32 0 48.5 19t16.5 52v32h74v-21zM462 277v56
q0 32 -17 51.5t-48 19.5t-47.5 -19.5t-16.5 -51.5v-56h129zM251 133v202q0 31 -17 50t-48 19q-30 0 -47 -19t-17 -50v-202q0 -32 17 -50.5t47 -18.5q31 0 48 18.5t17 50.5z" />
    <glyph glyph-name="Scaron" unicode="&#x160;" horiz-adv-x="427" 
d="M396 166q0 -81 -51.5 -131t-131.5 -50q-82 0 -132.5 47.5t-50.5 121.5v46h94v-31q0 -103 90 -103q42 0 65 23.5t23 62.5q0 45 -23.5 77.5t-86.5 71.5q-69 44 -111.5 94t-42.5 115q0 74 47 122t129 48q80 0 128.5 -47.5t48.5 -121.5v-43h-90v31q0 45 -22.5 72.5
t-67.5 27.5q-38 0 -58.5 -20.5t-20.5 -55.5q0 -44 25 -74.5t98 -77.5q75 -49 108 -95.5t33 -109.5zM336 800q-64 0 -89 -91h-73q-25 91 -90 91v26q21 6 44 6q31 0 53.5 -20.5t30.5 -56.5q9 36 32 56.5t54 20.5q18 0 38 -6v-26z" />
    <glyph glyph-name="scaron" unicode="&#x161;" horiz-adv-x="344" 
d="M315 122q0 -54 -38 -92t-102 -38q-69 0 -106 37.5t-37 99.5v23h70v-21q0 -71 72 -71q64 0 64 56q0 30 -16.5 49.5t-65.5 43.5q-117 49 -117 140q0 54 38 90.5t98 36.5q135 0 135 -129v-18h-68v20q0 55 -66 55q-28 0 -44 -13t-16 -35q0 -27 19.5 -46t73.5 -44
q56 -24 81 -59t25 -85zM299 634q-64 0 -89 -91h-73q-25 91 -90 91v26q21 6 44 6q31 0 53.5 -20.5t30.5 -56.5q9 36 32 56.5t54 20.5q19 0 38 -6v-26z" />
    <glyph glyph-name="Ydieresis" unicode="&#x178;" horiz-adv-x="407" 
d="M412 666l-160 -398v-268h-94v268l-161 398h102l109 -307l109 307h95zM306 732h-75v90h75v-90zM176 732h-75v90h75v-90z" />
    <glyph glyph-name="Zcaron" unicode="&#x17d;" horiz-adv-x="413" 
d="M389 623l-244 -537h235v-86h-355v43l247 536h-234v87h351v-43zM335 800q-64 0 -89 -91h-73q-25 91 -90 91v26q21 6 44 6q31 0 53.5 -20.5t30.5 -56.5q9 36 32 56.5t54 20.5q19 0 38 -6v-26z" />
    <glyph glyph-name="zcaron" unicode="&#x17e;" horiz-adv-x="316" 
d="M295 417l-182 -348h176v-69h-266v51l184 348h-175v69h263v-51zM289 634q-64 0 -89 -91h-73q-25 91 -90 91v26q21 6 44 6q31 0 53.5 -20.5t30.5 -56.5q9 36 32 56.5t54 20.5q19 0 38 -6v-26z" />
    <glyph glyph-name="florin" unicode="&#x192;" horiz-adv-x="294" 
d="M194 384h75v-75h-75v-172q0 -154 -119 -154h-29v76h11q29 0 39.5 11t10.5 39v200h-70v75h70v127q0 155 120 155h29v-76h-12q-29 0 -39.5 -11.5t-10.5 -38.5v-156z" />
    <glyph glyph-name="circumflex" unicode="&#x2c6;" horiz-adv-x="275" 
d="M264 548q-23 -7 -44 -7q-31 0 -53 21t-31 57q-8 -36 -31 -57t-54 -21q-15 0 -39 7v25q65 0 90 92h73q25 -92 89 -92v-25z" />
    <glyph glyph-name="caron" unicode="&#x2c7;" horiz-adv-x="276" 
d="M264 634q-64 0 -89 -91h-73q-25 91 -90 91v26q21 6 44 6q31 0 53.5 -20.5t30.5 -56.5q9 36 32 56.5t54 20.5q18 0 38 -6v-26z" />
    <glyph glyph-name="breve" unicode="&#x2d8;" horiz-adv-x="243" 
d="M232 622q0 -35 -31.5 -57.5t-79.5 -22.5t-79 22.5t-31 57.5q0 24 10 41h46v-18q0 -51 54 -51q55 0 55 51v18h46q10 -20 10 -41z" />
    <glyph glyph-name="dotaccent" unicode="&#x2d9;" horiz-adv-x="230" 
d="M152 566h-74v90h74v-90z" />
    <glyph glyph-name="ring" unicode="&#x2da;" horiz-adv-x="179" 
d="M170 619q0 -33 -23 -57t-58 -24t-58 24t-23 57t23 57t58 24t58 -24t23 -57zM130 619q0 45 -41 45q-19 0 -29.5 -12t-10.5 -33q0 -20 10.5 -32.5t29.5 -12.5t30 12t11 33z" />
    <glyph glyph-name="ogonek" unicode="&#x2db;" horiz-adv-x="191" 
d="M170 -168q-16 -11 -61 -11q-41 0 -68 23.5t-27 60.5q0 41 32.5 73t95.5 49l7 -9q-76 -47 -76 -100q0 -24 18 -39.5t53 -15.5h26v-31z" />
    <glyph glyph-name="tilde" unicode="&#x2dc;" horiz-adv-x="284" 
d="M272 627q0 -74 -68 -74q-26 0 -69.5 26.5t-53.5 26.5q-18 0 -18 -21v-33h-38q-13 20 -13 40q0 74 68 74q27 0 70.5 -26.5t52.5 -26.5q19 0 19 22v33h37q13 -17 13 -41z" />
    <glyph glyph-name="hungarumlaut" unicode="&#x2dd;" horiz-adv-x="258" 
d="M264 673l-74 -135h-53l49 135h78zM138 673l-58 -135h-53l34 135h77z" />
    <glyph glyph-name="Omega" unicode="&#x3a9;" horiz-adv-x="468" 
d="M456 393h-65v-393h-84v393h-54v70h54v49q0 73 31.5 113.5t92.5 40.5h33v-71h-22q-55 0 -55 -66v-66h69v-70zM222 393h-64v-393h-85v393h-54v70h54v49q0 73 31.5 113.5t92.5 40.5h34v-71h-23q-55 0 -55 -66v-66h69v-70z" />
    <glyph glyph-name="pi" unicode="&#x3c0;" horiz-adv-x="680" 
d="M658 326q0 -133 -91.5 -226t-226.5 -93t-226.5 93t-91.5 226t91.5 226.5t226.5 93.5t226.5 -93.5t91.5 -226.5zM608 326q0 116 -75.5 195t-192.5 79t-192.5 -79t-75.5 -195q0 -115 75.5 -194.5t192.5 -79.5t192.5 79.5t75.5 194.5zM457 369q0 -75 -85 -75h-61v-108h-55
v284h116q85 0 85 -72v-29zM402 369v29q0 31 -36 31h-55v-93h55q36 0 36 33z" />
    <glyph glyph-name="endash" unicode="&#x2013;" horiz-adv-x="475" 
d="M413 269h-350v76h350v-76z" />
    <glyph glyph-name="emdash" unicode="&#x2014;" horiz-adv-x="713" 
d="M651 269h-588v76h588v-76z" />
    <glyph glyph-name="quoteleft" unicode="&#x2018;" horiz-adv-x="159" 
d="M38 559q0 50 24.5 79t74.5 29v-29q-54 0 -54 -66h37v-113h-82v100z" />
    <glyph glyph-name="quoteright" unicode="&#x2019;" horiz-adv-x="159" 
d="M121 566q0 -49 -25 -78t-75 -29v29q26 0 40.5 17t14.5 48h-37v113h82v-100z" />
    <glyph glyph-name="quotesinglbase" unicode="&#x201a;" horiz-adv-x="159" 
d="M121 13q0 -50 -25 -79t-75 -29v29q26 0 40.5 17.5t14.5 48.5h-37v113h82v-100z" />
    <glyph glyph-name="quotedblleft" unicode="&#x201c;" horiz-adv-x="281" 
d="M159 559q0 50 24.5 79t74.5 29v-29q-26 0 -40.5 -17.5t-14.5 -48.5h38v-113h-82v100zM38 559q0 50 24.5 79t74.5 29v-29q-54 0 -54 -66h37v-113h-82v100z" />
    <glyph glyph-name="quotedblright" unicode="&#x201d;" horiz-adv-x="281" 
d="M241 566q0 -49 -24.5 -78t-74.5 -29v29q26 0 40.5 17t14.5 48h-38v113h82v-100zM121 566q0 -49 -25 -78t-75 -29v29q26 0 40.5 17t14.5 48h-37v113h82v-100z" />
    <glyph glyph-name="quotedblbase" unicode="&#x201e;" horiz-adv-x="281" 
d="M241 13q0 -50 -24.5 -79t-74.5 -29v29q26 0 40.5 17.5t14.5 48.5h-38v113h82v-100zM121 13q0 -50 -25 -79t-75 -29v29q26 0 40.5 17.5t14.5 48.5h-37v113h82v-100z" />
    <glyph glyph-name="dagger" unicode="&#x2020;" horiz-adv-x="381" 
d="M364 421q0 -12 -14 -12q-91 0 -136 12q13 -48 13 -173q0 -221 -10 -306q0 -14 -12 -14h-30q-12 0 -12 14q-9 92 -9 306q0 124 12 173q-44 -12 -136 -12q-14 0 -14 12v48q0 11 14 11q92 0 136 -11q-12 44 -12 183q0 14 12 14h48q13 0 13 -14q0 -134 -12 -183q43 11 135 11
q14 0 14 -11v-48z" />
    <glyph glyph-name="daggerdbl" unicode="&#x2021;" horiz-adv-x="381" 
d="M364 125q0 -12 -14 -12q-88 0 -135 12q12 -51 12 -183q0 -14 -13 -14h-48q-12 0 -12 14q0 138 12 183q-48 -12 -136 -12q-14 0 -14 12v48q0 12 14 12q86 0 136 -12q-12 49 -12 124t12 124q-44 -12 -136 -12q-14 0 -14 12v48q0 11 14 11q92 0 136 -11q-12 44 -12 183
q0 14 12 14h48q13 0 13 -14q0 -134 -12 -183q43 11 135 11q14 0 14 -11v-48q0 -12 -14 -12q-91 0 -136 12q13 -48 13 -124t-13 -124q51 12 136 12q14 0 14 -12v-48z" />
    <glyph glyph-name="bullet" unicode="&#x2022;" horiz-adv-x="295" 
d="M264 333q0 -54 -32.5 -86t-83.5 -32t-84 32t-33 86t33 86t84 32t83.5 -32t32.5 -86z" />
    <glyph glyph-name="ellipsis" unicode="&#x2026;" horiz-adv-x="519" 
d="M465 0h-82v113h82v-113zM300 0h-82v113h82v-113zM136 0h-82v113h82v-113z" />
    <glyph glyph-name="perthousand" unicode="&#x2030;" horiz-adv-x="806" 
d="M231 439q0 -47 -27.5 -75t-71.5 -28q-43 0 -70.5 28t-27.5 75v139q0 46 27.5 74t70.5 28q44 0 71.5 -28t27.5 -74v-139zM518 657l-422 -679l-39 30l422 679zM784 88q0 -48 -27.5 -76t-71.5 -28q-43 0 -71 28t-28 76v138q0 47 28 75t71 28q44 0 71.5 -28t27.5 -75v-138z
M542 88q0 -48 -27.5 -76t-71.5 -28q-43 0 -71 28t-28 76v138q0 47 28 75t71 28q44 0 71.5 -28t27.5 -75v-138zM168 424v169q0 14 -10 24t-26 10t-25.5 -9.5t-9.5 -24.5v-169q0 -15 9.5 -24t25.5 -9t26 9t10 24zM721 72v170q0 14 -10 23.5t-26 9.5t-26 -9.5t-10 -23.5v-170
q0 -14 10 -23.5t26 -9.5t26 9.5t10 23.5zM479 72v170q0 14 -10 23.5t-26 9.5t-26 -9.5t-10 -23.5v-170q0 -14 10 -23.5t26 -9.5t26 9.5t10 23.5z" />
    <glyph glyph-name="guilsinglleft" unicode="&#x2039;" horiz-adv-x="240" 
d="M208 0h-49q-12 56 -49 100t-87 59v69q50 15 87 59t49 100h49q0 -59 -28.5 -112t-76.5 -82q48 -29 76.5 -81.5t28.5 -111.5z" />
    <glyph glyph-name="guilsinglright" unicode="&#x203a;" horiz-adv-x="240" 
d="M218 159q-50 -15 -87 -59t-49 -100h-48q0 59 28 111.5t77 81.5q-49 29 -77 82t-28 112h48q12 -56 49 -100t87 -59v-69z" />
    <glyph glyph-name="fraction" unicode="&#x2044;" horiz-adv-x="101" 
d="M324 708l-498 -783l-47 33l498 782z" />
    <glyph glyph-name="trademark" unicode="&#x2122;" horiz-adv-x="587" 
d="M542 402h-48v214l-19 -74l-44 -140h-47l-43 140l-19 74v-214h-47v264h71l45 -147l17 -69l19 69l42 147h73v-264zM227 622h-76v-220h-52v220h-76v44h204v-44z" />
    <glyph glyph-name="product" unicode="&#x220f;" horiz-adv-x="436" 
d="M314 0l-104 278h-61v-278h-95v666h192q157 0 157 -149v-85q0 -53 -25.5 -91t-75.5 -53l27 -72q27 -72 55 -144l27 -72h-97zM149 356h87q71 0 71 75v88q0 65 -60 65h-98v-228z" />
    <glyph glyph-name="radical" unicode="&#x221a;" horiz-adv-x="647" 
d="M600 0h-85v666h85v-666zM456 393h-65v-393h-84v393h-54v70h54v49q0 73 31.5 113.5t92.5 40.5h33v-71h-22q-55 0 -55 -66v-66h69v-70zM222 393h-64v-393h-85v393h-54v70h54v49q0 73 31.5 113.5t92.5 40.5h34v-71h-23q-55 0 -55 -66v-66h69v-70z" />
    <glyph glyph-name="approxequal" unicode="&#x2248;" horiz-adv-x="647" 
d="M597 543h-79v89h79v-89zM456 393h-65v-393h-84v393h-54v70h54v49q0 73 31.5 113.5t92.5 40.5h33v-71h-22q-55 0 -55 -66v-66h69v-70zM222 393h-64v-393h-85v393h-54v70h54v49q0 73 31.5 113.5t92.5 40.5h34v-71h-23q-55 0 -55 -66v-66h69v-70zM600 0h-85v468h85v-468z
" />
    <glyph glyph-name="notequal" unicode="&#x2260;" horiz-adv-x="494" 
d="M470 0h-446v468h446v-468z" />
    <glyph glyph-name="lessequal" unicode="&#x2264;" horiz-adv-x="363" 
d="M302 118l-254 118v13l254 117v-248z" />
    <glyph glyph-name="greaterequal" unicode="&#x2265;" horiz-adv-x="363" 
d="M317 236l-254 -118v248l254 -117v-13z" />
    <glyph glyph-name="apple" unicode="&#xf8ff;" horiz-adv-x="967" 
d="M868 0h-767v750h767v-750zM859 -104h-6l-3 20l-10 -21h-2l-10 21l-3 -20h-6l6 34h1l13 -26l13 26h1zM806 -87q0 -18 -17 -18q-7 0 -12 5t-5 12q0 18 18 18q7 0 11.5 -5t4.5 -12zM758 -96l-1 -6q-3 -3 -10 -3q-18 0 -18 17q0 8 5.5 13t12.5 5t11 -3l-2 -5q-3 3 -9 3
q-12 0 -12 -12q0 -13 13 -13q4 0 10 4zM702 -71l-13 -19v-14h-6v14l-14 19l6 1l11 -15l9 14h7zM656 -104h-6v15h-16v-15h-6v33h6v-13h16v13h6v-33zM612 -82q0 -12 -17 -12v-10h-6v33q23 3 23 -11zM576 -104h-6l-4 8h-14l-3 -8h-6l15 34h2zM534 -104h-7l-8 11h-5v-11h-6v33
q23 3 23 -10q0 -7 -7 -10zM491 -101q-6 -4 -13 -4q-18 0 -18 17q0 8 5.5 13t13.5 5q6 0 12 -4l-2 -5q-4 4 -11 4q-12 0 -12 -13q0 -12 13 -12q2 0 6 2v7h-9v5h15v-15zM447 -87q0 -18 -17 -18q-7 0 -12 5t-5 12q0 18 18 18q7 0 11.5 -5t4.5 -12zM400 -82q0 -12 -17 -12v-10
h-6v33q23 3 23 -11zM364 -71l-13 -19v-14h-6v14l-14 19l6 1l11 -15l9 14h7zM323 -71v-5h-12v-28h-6v28h-12v5h30zM267 -71l-12 -34h-1l-11 23l-10 -23h-1l-12 34l6 1l7 -23l10 23h1l10 -23l7 22h6zM211 -71l-12 -34h-1l-11 23l-10 -23h-1l-12 34l6 1l7 -23l10 23h1l10 -23
l7 22h6zM155 -71l-12 -34h-1l-11 23l-10 -23h-1l-12 34l6 1l7 -23l10 23h1l10 -23l7 22h6zM716 -101q0 -4 -4 -4t-4 4t4 4t4 -4zM284 -101q0 -4 -4 -4t-4 4t4 4t4 -4zM559 686q0 8 -1 12q-2 -1 -17 -1t-18 1l-1 -12h2q4 9 10 9q3 0 3 -3v-23q-1 -5 -5 -5v-2h17v2l-4 2
q-1 1 -1 3v23q0 3 3 3t5.5 -2.5t3.5 -4.5l1 -2h2zM504 662v2q-6 -1 -6 5v21l6 5v2h-18v-1v-1l4 -2q1 -1 1 -3v-9h-17v9q1 5 5 5v1v1h-17v-2l4 -2q1 -1 1 -3v-21l-5 -5v-2h17v2q-5 0 -5 5v10h17v-10q-1 -5 -5 -5v-2h18zM439 664l-4 2q-1 1 -1 3v21q1 5 5 5v2h-29l-2 -10l2 -1
q3 8 9 8h4q4 0 4 -3v-10h-4l-6 5h-2v-13h2q0 6 6 6h4v-11q0 -3 -4 -3h-4q-3 0 -5.5 2.5t-3.5 4.5l-1 2l-2 -1l2 -11h30v2zM827 618v6h-685v-6h685zM696 540q0 15 -11.5 26.5t-25.5 11.5q-8 0 -15.5 -5.5t-7.5 -16.5q0 -16 11 -27t26 -11q8 0 15.5 5.5t7.5 16.5zM589 537
q0 12 -14 17q5 3 5 9q0 15 -21 15q-13 0 -13 -11q0 -6 5 -6q4 0 4 3q0 2 -1.5 3.5t-1.5 2.5q0 5 7 5q10 0 10 -12q0 -4 -2 -6q-16 2 -16 -6q0 -6 8 -6q6 0 11 5q6 -4 6 -15q0 -14 -12 -14t-12 9q0 3 3 3l1 -1q2 -1 4 -1q4 0 4 5t-7 5q-9 0 -9 -10q0 -13 16 -13q25 0 25 19z
M295 537q0 12 -14 17q5 3 5 9q0 15 -21 15q-13 0 -13 -11q0 -6 5 -6q4 0 4 3q0 2 -1.5 3.5t-1.5 2.5q0 5 7 5q10 0 10 -12q0 -4 -2 -6q-16 2 -16 -6q0 -6 8 -6q6 0 11 5q6 -4 6 -15q0 -14 -12 -14t-12 9q0 3 3 3l1 -1q2 -1 4 -1q4 0 4 5t-7 5q-9 0 -9 -10q0 -13 16 -13
q25 0 25 19zM820 522q-8 -1 -10 8l-7 35q-1 4 1 6t4 2h2l-1 3h-28l1 -3q7 1 9 -8l3 -15h-24l-3 15q-1 4 1 6t4 2h2l-1 3h-29l1 -3q8 1 10 -8l7 -35q1 -4 -1 -6t-4 -2h-2l1 -3h29l-1 3q-8 -1 -10 8l-3 16h24l3 -16q1 -4 -1 -6t-4 -2h-2l1 -3h29zM498 519l-1 3q-8 -1 -10 8
l-7 35q-1 4 1 6t4 2h2l-1 3h-45v-17h4q-1 13 13 13h4q5 0 6 -6l3 -16h-4q-4 0 -7 2t-4 4l-1 3h-3l5 -23h3q-1 11 8 11h4l3 -17q1 -4 -1 -6t-4 -2h-2l1 -3h29zM202 522q-8 -1 -10 8l-7 35q-1 4 1 6t4 2h2l-1 3h-27q-20 0 -20 -15q0 -13 19 -15l-9 -16q-2 -4 -5.5 -6t-6.5 -2
h-2l1 -3h19l12 23q2 3 5 3l3 -15q1 -4 -1 -6t-4 -2h-2l1 -3h29zM400 521q0 8 -13 9q-4 2 -5 14.5t-5.5 23t-18.5 10.5q-5 0 -9 -3.5t-4 -6.5q0 -5 5 -5q4 0 4 6t5 6t7 -8t4.5 -19.5t9.5 -17.5q-8 0 -14 -6.5t-9 -6.5q-5 0 -5 4q0 2 1 3t1 2q0 5 -5 5t-5 -7q0 -4 5 -8t10 -4
q10 0 15 6.5t10 6.5q4 -7 12 -7q4 0 4 3zM827 475v6h-685v-6h685zM827 378v62h-147v-62h36v28h11v-65h-14v-33h81v33h-14v65h11v-28h36zM648 406v34h-81v-34h11l-15 -23l-15 23h10v34h-62v-34h12l37 -46v-19h-14v-33h81v33h-15v20l37 45h14zM458 308v33h-14v65h14v34h-96
q-21 0 -34 -11.5t-13 -28.5q0 -18 13 -29t34 -11h30v-19h-15v-33h81zM283 308v33h-14v65h14v34h-141v-62h41v28h33v-20h-24v-24h24v-21h-33v28h-41v-61h141zM827 271v6h-685v-6h685zM728 192q0 15 -11.5 26.5t-25.5 11.5q-8 0 -15.5 -5.5t-7.5 -16.5q0 -16 11 -27t26 -11
q8 0 15.5 5.5t7.5 16.5zM203 217q-7 13 -18 13q-15 0 -14 -23q-7 23 -21 23q-12 0 -12 -12l3 -1q0 6 8 6q16 0 24 -33q2 -8 0.5 -11.5t-3.5 -3.5h-3l1 -4h28l-1 4q-7 -2 -10 9q-5 17 -5 25q0 13 9 13q5 0 12 -7zM823 171l-1 3q-8 -1 -10 8l-7 35q-1 4 1 6t4 2h2l-1 3h-45
v-17h4q-1 13 13 13h4q5 0 6 -6l3 -16h-4q-4 0 -7 2t-4 4l-1 3h-3l5 -23h3q-1 11 8 11h4l3 -17q1 -4 -1 -6t-4 -2h-2l1 -3h29zM621 225l-1 3h-29l1 -3q8 1 10 -9l5 -21q5 -20 -11 -20q-14 0 -20 22l-4 19q-1 5 1 7t4 2h2v3h-24l1 -3q9 1 11 -9l4 -19q5 -27 28 -27q24 0 19 24
l-5 22q-1 5 1 7t4 2h3zM522 174q-6 0 -9 10l-7 32q-1 4 1 6.5t5 2.5h2l-1 3h-14l-29 -42l-5 30q-1 4 1 6t4 2l2 1l-1 3h-21l1 -3q7 0 9 -9l8 -45l3 -1l30 44l6 -30q1 -5 -0.5 -7.5t-3.5 -2.5h-2l1 -3h21zM414 171l-1 4q-7 -2 -10 9l-8 31q-3 9 8 10l-1 3h-30q-25 0 -25 -22
q0 -15 11 -25t24 -10h32zM306 174q-8 -1 -10 8l-7 35q-1 4 1 6t4 2h2l-1 3h-27q-20 0 -20 -15q0 -13 19 -15l-9 -16q-2 -4 -5.5 -6t-6.5 -2h-2l1 -3h19l12 23q2 3 5 3l3 -15q1 -4 -1 -6t-4 -2h-2l1 -3h29zM827 127v6h-685v-6h685zM694 46v2q-6 1 -6 5v20l6 6v2h-10l-24 -26
v18q0 2 1.5 3.5t2.5 1.5l2 1v2h-15v-2q6 -1 6 -6v-28h3l25 28v-20l-5 -5v-2h14zM633 48l-4 2q-1 1 -1 3v21q1 5 5 5v2h-29l-2 -10l2 -1q3 8 9 8h4q4 0 4 -3v-10h-4l-6 5h-2v-13h2q0 6 6 6h4v-11q0 -3 -4 -3h-4q-3 0 -5.5 2.5t-3.5 4.5l-1 2l-2 -1l2 -11h30v2zM583 81h-15v-2
l2 -5l-9 -19l-5 10l4 8l6 6v2h-26l1 -2q3 0 7 -6l3 -5l-7 -13l-8 18l2 6v2h-13v-2q4 -1 6 -6l13 -27h1q1 -1 1 0l8 16l9 -16h1l12 27q1 3 3 4.5t3 1.5h1v2zM480 79v2h-15v-2l1 -5l-6 -9l-6 9l3 5v2h-15v-2q5 0 8 -5l8 -12v-8l-5 -6v-2h17v2q-5 0 -5 6v8l8 12zM425 64
q0 18 -20 18t-20 -18q0 -19 20 -19t20 19zM364 46v2q-5 0 -5 5v20l5 6v2h-18q-13 0 -13 -9q0 -5 9 -9l-7 -10l-8 -5v-2h11l7 12q3 4 7 4v-9l-5 -5v-2h17zM309 46v2q-6 1 -6 6v20l6 5v2h-18v-2q6 0 6 -5v-9q-2 0 -4 2l-8 8l1 4v2h-14v-2q5 -1 8 -4l10 -9l-13 -13l-7 -5v-2h17
v2l-2 5l8 8q2 2 4 2v-9q0 -3 -1.5 -4.5t-3.5 -1.5h-1v-2h18zM606 -83q0 8 -11 7v-13q11 0 11 6zM525 -82q0 8 -11 6v-12q11 -1 11 6zM394 -83q0 8 -11 7v-13q11 0 11 6zM564 -92l-5 12l-5 -12h10zM800 -88q0 13 -11 13t-11 -12q0 -13 11 -13t11 12zM441 -88q0 13 -11 13
t-11 -12q0 -13 11 -13t11 12zM176 548h-5q-15 0 -15 15q0 9 8 9t9 -5zM566 553q-3 -4 -7 -4t-4 2q0 3 4 3q5 0 7 -1zM272 553q-3 -4 -7 -4t-4 2q0 3 4 3q5 0 7 -1zM684 535q0 -13 -11 -13q-9 0 -17 11.5t-8 26.5q0 14 11 14q9 0 17 -12t8 -27zM392 384h-11q-13 0 -13 11
t13 11h11v-22zM280 200h-5q-15 0 -15 15q0 9 8 9t9 -5zM716 187q0 -13 -11 -13q-9 0 -17 11.5t-8 26.5q0 14 11 14q9 0 17 -12t8 -27zM393 182q0 -7 -4 -7h-5q-11 0 -18.5 10t-7.5 22q0 17 14 17h6q4 -1 6 -7zM553 79q5 0 0 -9q-5 9 0 9zM352 64h-3q-8 0 -8 8q0 6 7 6
q4 0 4 -4v-10zM417 64q0 -17 -12 -17t-12 17q0 16 12 16t12 -16z" />
    <glyph glyph-name="fi" unicode="&#xfb01;" horiz-adv-x="414" 
d="M363 543h-78v89h78v-89zM222 393h-64v-393h-85v393h-54v70h54v49q0 73 31.5 113.5t92.5 40.5h34v-71h-23q-55 0 -55 -66v-66h69v-70zM366 0h-84v468h84v-468z" />
    <glyph glyph-name="fl" unicode="&#xfb02;" horiz-adv-x="414" 
d="M366 0h-84v666h84v-666zM222 393h-64v-393h-85v393h-54v70h54v49q0 73 31.5 113.5t92.5 40.5h34v-71h-23q-55 0 -55 -66v-66h69v-70z" />
    <glyph glyph-name="periodcentered" horiz-adv-x="159" 
d="M121 276h-82v113h82v-113z" />
    </font>
</defs>
</svg>
